GoogleSansCode-ExtraBold.ufo
<glyph name="exclam" format="2">
  <advance width="1200"/>
  <unicode hex="0021"/>
  <outline>
    <contour>
      <point x="434" y="625" type="line"/>
      <point x="766" y="625" type="line"/>
      <point x="812" y="1494" type="line"/>
      <point x="388" y="1494" type="line"/>
    </contour>
    <contour>
      <point x="600" y="-35" type="curve" smooth="yes"/>
      <point x="723" y="-35"/>
      <point x="820" y="62"/>
      <point x="820" y="185" type="curve" smooth="yes"/>
      <point x="820" y="308"/>
      <point x="724" y="404"/>
      <point x="600" y="404" type="curve" smooth="yes"/>
      <point x="477" y="404"/>
      <point x="380" y="308"/>
      <point x="380" y="185" type="curve" smooth="yes"/>
      <point x="380" y="62"/>
      <point x="477" y="-35"/>
    </contour>
  </outline>
</glyph>
<glyph name="numbersign" format="2">
  <advance width="1200"/>
  <unicode hex="0023"/>
  <outline>
    <contour>
      <point x="595" y="-17" type="line"/>
      <point x="850" y="-17" type="line"/>
      <point x="1051" y="1450" type="line"/>
      <point x="796" y="1450" type="line"/>
    </contour>
    <contour>
      <point x="150" y="-17" type="line"/>
      <point x="405" y="-17" type="line"/>
      <point x="605" y="1450" type="line"/>
      <point x="350" y="1450" type="line"/>
    </contour>
    <contour>
      <point x="16" y="330" type="line"/>
      <point x="1112" y="330" type="line"/>
      <point x="1112" y="588" type="line"/>
      <point x="16" y="588" type="line"/>
    </contour>
    <contour>
      <point x="89" y="845" type="line"/>
      <point x="1184" y="845" type="line"/>
      <point x="1184" y="1103" type="line"/>
      <point x="89" y="1103" type="line"/>
    </contour>
  </outline>
</glyph>
<glyph name="dollar" format="2">
  <advance width="1200"/>
  <unicode hex="0024"/>
  <outline>
    <contour>
      <point x="618" y="0" type="curve" smooth="yes"/>
      <point x="932" y="0"/>
      <point x="1141" y="172"/>
      <point x="1141" y="424" type="curve" smooth="yes"/>
      <point x="1141" y="434" type="line" smooth="yes"/>
      <point x="1141" y="634"/>
      <point x="1030" y="759"/>
      <point x="793" y="845" type="curve" smooth="yes"/>
      <point x="601" y="915" type="line" smooth="yes"/>
      <point x="502" y="951"/>
      <point x="462" y="981"/>
      <point x="462" y="1035" type="curve" smooth="yes"/>
      <point x="462" y="1036" type="line" smooth="yes"/>
      <point x="462" y="1099"/>
      <point x="512" y="1139"/>
      <point x="592" y="1139" type="curve" smooth="yes"/>
      <point x="689" y="1139"/>
      <point x="748" y="1089"/>
      <point x="773" y="1000" type="curve"/>
      <point x="1111" y="1103" type="line"/>
      <point x="1052" y="1311"/>
      <point x="881" y="1432"/>
      <point x="631" y="1432" type="curve" smooth="yes"/>
      <point x="313" y="1432"/>
      <point x="112" y="1275"/>
      <point x="112" y="1029" type="curve" smooth="yes"/>
      <point x="112" y="1020" type="line" smooth="yes"/>
      <point x="112" y="842"/>
      <point x="224" y="714"/>
      <point x="469" y="626" type="curve" smooth="yes"/>
      <point x="662" y="557" type="line" smooth="yes"/>
      <point x="751" y="525"/>
      <point x="793" y="486"/>
      <point x="793" y="423" type="curve" smooth="yes"/>
      <point x="793" y="417" type="line" smooth="yes"/>
      <point x="793" y="341"/>
      <point x="736" y="295"/>
      <point x="642" y="295" type="curve" smooth="yes"/>
      <point x="524" y="295"/>
      <point x="428" y="367"/>
      <point x="393" y="509" type="curve"/>
      <point x="59" y="403" type="line"/>
      <point x="121" y="143"/>
      <point x="331" y="0"/>
    </contour>
    <contour>
      <point x="484" y="-236" type="line"/>
      <point x="776" y="-236" type="line"/>
      <point x="776" y="88" type="line"/>
      <point x="776" y="119" type="line"/>
      <point x="776" y="156" type="line"/>
      <point x="484" y="156" type="line"/>
      <point x="484" y="119" type="line"/>
      <point x="484" y="88" type="line"/>
    </contour>
    <contour>
      <point x="484" y="1302" type="line"/>
      <point x="776" y="1302" type="line"/>
      <point x="776" y="1349" type="line"/>
      <point x="776" y="1383" type="line"/>
      <point x="776" y="1668" type="line"/>
      <point x="484" y="1668" type="line"/>
      <point x="484" y="1383" type="line"/>
      <point x="484" y="1349" type="line"/>
    </contour>
  </outline>
</glyph>
<glyph name="percent" format="2">
  <advance width="1200"/>
  <unicode hex="0025"/>
  <outline>
    <contour>
      <point x="157" y="222" type="line"/>
      <point x="1197" y="1012" type="line"/>
      <point x="1042" y="1211" type="line"/>
      <point x="3" y="422" type="line"/>
    </contour>
    <contour>
      <point x="847" y="-35" type="curve" smooth="yes"/>
      <point x="1045" y="-35"/>
      <point x="1171" y="103"/>
      <point x="1171" y="288" type="curve" smooth="yes"/>
      <point x="1171" y="296" type="line" smooth="yes"/>
      <point x="1171" y="481"/>
      <point x="1045" y="618"/>
      <point x="847" y="618" type="curve" smooth="yes"/>
      <point x="647" y="618"/>
      <point x="521" y="481"/>
      <point x="521" y="296" type="curve" smooth="yes"/>
      <point x="521" y="288" type="line" smooth="yes"/>
      <point x="521" y="103"/>
      <point x="647" y="-35"/>
    </contour>
    <contour>
      <point x="847" y="164" type="curve" smooth="yes"/>
      <point x="779" y="164"/>
      <point x="736" y="214"/>
      <point x="736" y="290" type="curve" smooth="yes"/>
      <point x="736" y="294" type="line" smooth="yes"/>
      <point x="736" y="370"/>
      <point x="779" y="419"/>
      <point x="847" y="419" type="curve" smooth="yes"/>
      <point x="913" y="419"/>
      <point x="956" y="370"/>
      <point x="956" y="294" type="curve" smooth="yes"/>
      <point x="956" y="290" type="line" smooth="yes"/>
      <point x="956" y="214"/>
      <point x="913" y="164"/>
    </contour>
    <contour>
      <point x="355" y="814" type="curve" smooth="yes"/>
      <point x="553" y="814"/>
      <point x="679" y="952"/>
      <point x="679" y="1137" type="curve" smooth="yes"/>
      <point x="679" y="1145" type="line" smooth="yes"/>
      <point x="679" y="1330"/>
      <point x="553" y="1467"/>
      <point x="355" y="1467" type="curve" smooth="yes"/>
      <point x="155" y="1467"/>
      <point x="29" y="1330"/>
      <point x="29" y="1145" type="curve" smooth="yes"/>
      <point x="29" y="1137" type="line" smooth="yes"/>
      <point x="29" y="952"/>
      <point x="155" y="814"/>
    </contour>
    <contour>
      <point x="355" y="1013" type="curve" smooth="yes"/>
      <point x="287" y="1013"/>
      <point x="244" y="1063"/>
      <point x="244" y="1139" type="curve" smooth="yes"/>
      <point x="244" y="1143" type="line" smooth="yes"/>
      <point x="244" y="1219"/>
      <point x="287" y="1268"/>
      <point x="355" y="1268" type="curve" smooth="yes"/>
      <point x="421" y="1268"/>
      <point x="464" y="1219"/>
      <point x="464" y="1143" type="curve" smooth="yes"/>
      <point x="464" y="1139" type="line" smooth="yes"/>
      <point x="464" y="1063"/>
      <point x="421" y="1013"/>
    </contour>
  </outline>
</glyph>
<glyph name="ampersand" format="2">
  <advance width="1200"/>
  <unicode hex="0026"/>
  <outline>
    <contour>
      <point x="970" y="-61" type="line"/>
      <point x="1200" y="155" type="line"/>
      <point x="538" y="881" type="line" smooth="yes"/>
      <point x="479" y="946"/>
      <point x="452" y="996"/>
      <point x="452" y="1042" type="curve" smooth="yes"/>
      <point x="452" y="1047" type="line" smooth="yes"/>
      <point x="452" y="1111"/>
      <point x="496" y="1153"/>
      <point x="565" y="1153" type="curve" smooth="yes"/>
      <point x="635" y="1153"/>
      <point x="678" y="1110"/>
      <point x="701" y="1017" type="curve"/>
      <point x="1002" y="1099" type="line"/>
      <point x="940" y="1338"/>
      <point x="781" y="1467"/>
      <point x="550" y="1467" type="curve" smooth="yes"/>
      <point x="288" y="1467"/>
      <point x="112" y="1313"/>
      <point x="112" y="1084" type="curve" smooth="yes"/>
      <point x="112" y="1082" type="line" smooth="yes"/>
      <point x="112" y="951"/>
      <point x="171" y="838"/>
      <point x="317" y="673" type="curve" smooth="yes"/>
    </contour>
    <contour>
      <point x="501" y="-35" type="curve" smooth="yes"/>
      <point x="816" y="-35"/>
      <point x="1073" y="284"/>
      <point x="1149" y="829" type="curve"/>
      <point x="832" y="870" type="line"/>
      <point x="802" y="410"/>
      <point x="719" y="265"/>
      <point x="541" y="265" type="curve" smooth="yes"/>
      <point x="423" y="265"/>
      <point x="356" y="334"/>
      <point x="356" y="453" type="curve" smooth="yes"/>
      <point x="356" y="468" type="line" smooth="yes"/>
      <point x="356" y="562"/>
      <point x="397" y="622"/>
      <point x="484" y="657" type="curve"/>
      <point x="363" y="850" type="line"/>
      <point x="145" y="773"/>
      <point x="18" y="627"/>
      <point x="18" y="413" type="curve" smooth="yes"/>
      <point x="18" y="395" type="line" smooth="yes"/>
      <point x="18" y="142"/>
      <point x="224" y="-35"/>
    </contour>
  </outline>
</glyph>
<glyph name="quotesingle" format="2">
  <advance width="1200"/>
  <unicode hex="0027"/>
  <outline>
    <contour>
      <point x="417" y="897" type="line"/>
      <point x="783" y="897" type="line"/>
      <point x="783" y="1460" type="line"/>
      <point x="417" y="1460" type="line"/>
    </contour>
  </outline>
</glyph>
<glyph name="parenright" format="2">
  <advance width="1200"/>
  <unicode hex="0029"/>
  <outline>
    <contour>
      <point x="313" y="-353" type="line"/>
      <point x="722" y="-54"/>
      <point x="897" y="256"/>
      <point x="897" y="670" type="curve" smooth="yes"/>
      <point x="897" y="1084"/>
      <point x="722" y="1394"/>
      <point x="313" y="1693" type="curve"/>
      <point x="125" y="1447" type="line"/>
      <point x="418" y="1229"/>
      <point x="554" y="985"/>
      <point x="554" y="670" type="curve" smooth="yes"/>
      <point x="554" y="355"/>
      <point x="418" y="111"/>
      <point x="125" y="-107" type="curve"/>
    </contour>
  </outline>
</glyph>
<glyph name="asterisk" format="2">
  <advance width="1200"/>
  <unicode hex="002A"/>
  <outline>
    <contour>
      <point x="179" y="397" type="line"/>
      <point x="638" y="685" type="line"/>
      <point x="1148" y="931" type="line"/>
      <point x="1021" y="1151" type="line"/>
      <point x="562" y="863" type="line"/>
      <point x="52" y="617" type="line"/>
    </contour>
    <contour>
      <point x="1021" y="397" type="line"/>
      <point x="1148" y="617" type="line"/>
      <point x="638" y="863" type="line"/>
      <point x="179" y="1151" type="line"/>
      <point x="52" y="931" type="line"/>
      <point x="562" y="685" type="line"/>
    </contour>
    <contour>
      <point x="476" y="205" type="line"/>
      <point x="724" y="205" type="line"/>
      <point x="724" y="1343" type="line"/>
      <point x="476" y="1343" type="line"/>
    </contour>
  </outline>
</glyph>
<glyph name="hyphen" format="2">
  <advance width="1200"/>
  <unicode hex="002D"/>
  <outline>
    <contour>
      <point x="114" y="475" type="line"/>
      <point x="1086" y="475" type="line"/>
      <point x="1086" y="815" type="line"/>
      <point x="114" y="815" type="line"/>
    </contour>
  </outline>
</glyph>
<glyph name="slash" format="2">
  <advance width="1200"/>
  <unicode hex="002F"/>
  <outline>
    <contour>
      <point x="102" y="-176" type="line"/>
      <point x="435" y="-176" type="line"/>
      <point x="1098" y="1460" type="line"/>
      <point x="765" y="1460" type="line"/>
    </contour>
  </outline>
</glyph>
<glyph name="two" format="2">
  <advance width="1200"/>
  <unicode hex="0032"/>
  <outline>
    <contour>
      <point x="100" y="0" type="line"/>
      <point x="1096" y="0" type="line"/>
      <point x="1096" y="324" type="line"/>
      <point x="567" y="324" type="line"/>
      <point x="567" y="334" type="line"/>
      <point x="817" y="599" type="line" smooth="yes"/>
      <point x="1010" y="804"/>
      <point x="1067" y="910"/>
      <point x="1067" y="1061" type="curve" smooth="yes"/>
      <point x="1067" y="1069" type="line" smooth="yes"/>
      <point x="1067" y="1308"/>
      <point x="888" y="1467"/>
      <point x="620" y="1467" type="curve" smooth="yes"/>
      <point x="367" y="1467"/>
      <point x="169" y="1331"/>
      <point x="92" y="1104" type="curve"/>
      <point x="426" y="985" type="line"/>
      <point x="458" y="1079"/>
      <point x="510" y="1125"/>
      <point x="586" y="1125" type="curve" smooth="yes"/>
      <point x="655" y="1125"/>
      <point x="697" y="1082"/>
      <point x="697" y="1011" type="curve" smooth="yes"/>
      <point x="697" y="1005" type="line" smooth="yes"/>
      <point x="697" y="936"/>
      <point x="671" y="887"/>
      <point x="581" y="789" type="curve" smooth="yes"/>
      <point x="100" y="265" type="line"/>
    </contour>
  </outline>
</glyph>
<glyph name="three" format="2">
  <advance width="1200"/>
  <unicode hex="0033"/>
  <outline>
    <contour>
      <point x="650" y="-35" type="curve" smooth="yes"/>
      <point x="937" y="-35"/>
      <point x="1132" y="130"/>
      <point x="1132" y="373" type="curve" smooth="yes"/>
      <point x="1132" y="383" type="line" smooth="yes"/>
      <point x="1132" y="555"/>
      <point x="1029" y="693"/>
      <point x="826" y="733" type="curve"/>
      <point x="826" y="741" type="line"/>
      <point x="993" y="791"/>
      <point x="1088" y="920"/>
      <point x="1088" y="1083" type="curve" smooth="yes"/>
      <point x="1088" y="1093" type="line" smooth="yes"/>
      <point x="1088" y="1315"/>
      <point x="901" y="1467"/>
      <point x="619" y="1467" type="curve" smooth="yes"/>
      <point x="355" y="1467"/>
      <point x="155" y="1334"/>
      <point x="92" y="1118" type="curve"/>
      <point x="410" y="1013" type="line"/>
      <point x="432" y="1092"/>
      <point x="500" y="1141"/>
      <point x="589" y="1141" type="curve" smooth="yes"/>
      <point x="685" y="1141"/>
      <point x="736" y="1093"/>
      <point x="736" y="1023" type="curve" smooth="yes"/>
      <point x="736" y="1007" type="line" smooth="yes"/>
      <point x="736" y="927"/>
      <point x="676" y="884"/>
      <point x="568" y="884" type="curve" smooth="yes"/>
      <point x="404" y="884" type="line"/>
      <point x="404" y="566" type="line"/>
      <point x="603" y="566" type="line" smooth="yes"/>
      <point x="725" y="566"/>
      <point x="780" y="519"/>
      <point x="780" y="440" type="curve" smooth="yes"/>
      <point x="780" y="422" type="line" smooth="yes"/>
      <point x="780" y="336"/>
      <point x="718" y="291"/>
      <point x="620" y="291" type="curve" smooth="yes"/>
      <point x="491" y="291"/>
      <point x="408" y="354"/>
      <point x="370" y="480" type="curve"/>
      <point x="60" y="374" type="line"/>
      <point x="135" y="109"/>
      <point x="339" y="-35"/>
    </contour>
  </outline>
</glyph>
<glyph name="five" format="2">
  <advance width="1200"/>
  <unicode hex="0035"/>
  <outline>
    <contour>
      <point x="592" y="-35" type="curve" smooth="yes"/>
      <point x="913" y="-35"/>
      <point x="1132" y="171"/>
      <point x="1132" y="474" type="curve" smooth="yes"/>
      <point x="1132" y="481" type="line" smooth="yes"/>
      <point x="1132" y="759"/>
      <point x="967" y="946"/>
      <point x="722" y="946" type="curve" smooth="yes"/>
      <point x="601" y="946"/>
      <point x="501" y="906"/>
      <point x="413" y="822" type="curve"/>
      <point x="404" y="826" type="line"/>
      <point x="446" y="1122" type="line"/>
      <point x="1041" y="1122" type="line"/>
      <point x="1041" y="1432" type="line"/>
      <point x="204" y="1432" type="line"/>
      <point x="108" y="668" type="line"/>
      <point x="400" y="577" type="line"/>
      <point x="449" y="632"/>
      <point x="516" y="666"/>
      <point x="595" y="666" type="curve" smooth="yes"/>
      <point x="716" y="666"/>
      <point x="780" y="593"/>
      <point x="780" y="487" type="curve" smooth="yes"/>
      <point x="780" y="470" type="line" smooth="yes"/>
      <point x="780" y="360"/>
      <point x="711" y="291"/>
      <point x="593" y="291" type="curve" smooth="yes"/>
      <point x="481" y="291"/>
      <point x="396" y="360"/>
      <point x="366" y="476" type="curve"/>
      <point x="58" y="361" type="line"/>
      <point x="122" y="119"/>
      <point x="330" y="-35"/>
    </contour>
  </outline>
</glyph>
<glyph name="six" format="2">
  <advance width="1200"/>
  <unicode hex="0036"/>
  <outline>
    <contour>
      <point x="598" y="-32" type="curve" smooth="yes"/>
      <point x="911" y="-32"/>
      <point x="1130" y="180"/>
      <point x="1130" y="481" type="curve" smooth="yes"/>
      <point x="1130" y="488" type="line" smooth="yes"/>
      <point x="1130" y="755"/>
      <point x="979" y="944"/>
      <point x="731" y="944" type="curve" smooth="yes"/>
      <point x="663" y="944"/>
      <point x="605" y="932"/>
      <point x="554" y="910" type="curve"/>
      <point x="550" y="918" type="line"/>
      <point x="607" y="956"/>
      <point x="651" y="995"/>
      <point x="697" y="1047" type="curve" smooth="yes"/>
      <point x="910" y="1289" type="line"/>
      <point x="626" y="1495" type="line"/>
      <point x="328" y="1104" type="line" smooth="yes"/>
      <point x="138" y="855"/>
      <point x="70" y="684"/>
      <point x="70" y="493" type="curve" smooth="yes"/>
      <point x="70" y="487" type="line" smooth="yes"/>
      <point x="70" y="184"/>
      <point x="288" y="-32"/>
    </contour>
    <contour>
      <point x="600" y="294" type="curve" smooth="yes"/>
      <point x="483" y="294"/>
      <point x="420" y="368"/>
      <point x="420" y="479" type="curve" smooth="yes"/>
      <point x="420" y="496" type="line" smooth="yes"/>
      <point x="420" y="607"/>
      <point x="483" y="680"/>
      <point x="600" y="680" type="curve" smooth="yes"/>
      <point x="717" y="680"/>
      <point x="780" y="606"/>
      <point x="780" y="496" type="curve" smooth="yes"/>
      <point x="780" y="479" type="line" smooth="yes"/>
      <point x="780" y="368"/>
      <point x="717" y="294"/>
    </contour>
  </outline>
</glyph>
<glyph name="colon" format="2">
  <advance width="1200"/>
  <unicode hex="003A"/>
  <outline>
    <contour>
      <point x="600" y="653" type="curve" smooth="yes"/>
      <point x="725" y="653"/>
      <point x="820" y="748"/>
      <point x="820" y="871" type="curve" smooth="yes"/>
      <point x="820" y="992"/>
      <point x="725" y="1089"/>
      <point x="600" y="1089" type="curve" smooth="yes"/>
      <point x="477" y="1089"/>
      <point x="380" y="992"/>
      <point x="380" y="871" type="curve" smooth="yes"/>
      <point x="380" y="748"/>
      <point x="478" y="653"/>
    </contour>
    <contour>
      <point x="600" y="-30" type="curve" smooth="yes"/>
      <point x="725" y="-30"/>
      <point x="820" y="65"/>
      <point x="820" y="188" type="curve" smooth="yes"/>
      <point x="820" y="309"/>
      <point x="725" y="406"/>
      <point x="600" y="406" type="curve" smooth="yes"/>
      <point x="477" y="406"/>
      <point x="380" y="309"/>
      <point x="380" y="188" type="curve" smooth="yes"/>
      <point x="380" y="65"/>
      <point x="478" y="-30"/>
    </contour>
  </outline>
</glyph>
<glyph name="less" format="2">
  <advance width="1200"/>
  <unicode hex="003C"/>
  <outline>
    <contour>
      <point x="1080" y="9" type="line"/>
      <point x="1080" y="357" type="line"/>
      <point x="484" y="641" type="line"/>
      <point x="484" y="649" type="line"/>
      <point x="1080" y="933" type="line"/>
      <point x="1080" y="1281" type="line"/>
      <point x="90" y="771" type="line"/>
      <point x="90" y="518" type="line"/>
    </contour>
  </outline>
</glyph>
<glyph name="question" format="2">
  <advance width="1200"/>
  <unicode hex="003F"/>
  <outline>
    <contour>
      <point x="402" y="467" type="line"/>
      <point x="754" y="467" type="line"/>
      <point x="754" y="605" type="line"/>
      <point x="879" y="677" type="line" smooth="yes"/>
      <point x="1039" y="769"/>
      <point x="1110" y="887"/>
      <point x="1110" y="1043" type="curve" smooth="yes"/>
      <point x="1110" y="1045" type="line" smooth="yes"/>
      <point x="1110" y="1295"/>
      <point x="915" y="1467"/>
      <point x="629" y="1467" type="curve" smooth="yes"/>
      <point x="366" y="1467"/>
      <point x="157" y="1322"/>
      <point x="76" y="1082" type="curve"/>
      <point x="402" y="977" type="line"/>
      <point x="437" y="1079"/>
      <point x="522" y="1141"/>
      <point x="624" y="1141" type="curve" smooth="yes"/>
      <point x="707" y="1141"/>
      <point x="760" y="1100"/>
      <point x="760" y="1033" type="curve" smooth="yes"/>
      <point x="760" y="1022" type="line" smooth="yes"/>
      <point x="760" y="954"/>
      <point x="717" y="908"/>
      <point x="593" y="841" type="curve" smooth="yes"/>
      <point x="402" y="737" type="line"/>
    </contour>
    <contour>
      <point x="578" y="-35" type="curve" smooth="yes"/>
      <point x="694" y="-35"/>
      <point x="789" y="62"/>
      <point x="789" y="178" type="curve" smooth="yes"/>
      <point x="789" y="293"/>
      <point x="696" y="383"/>
      <point x="578" y="383" type="curve" smooth="yes"/>
      <point x="461" y="383"/>
      <point x="367" y="293"/>
      <point x="367" y="178" type="curve" smooth="yes"/>
      <point x="367" y="62"/>
      <point x="462" y="-35"/>
    </contour>
  </outline>
</glyph>
<glyph name="at" format="2">
  <advance width="1200"/>
  <unicode hex="0040"/>
  <outline>
    <contour>
      <point x="706" y="-233" type="curve" smooth="yes"/>
      <point x="864" y="-233"/>
      <point x="995" y="-192"/>
      <point x="1110" y="-106" type="curve"/>
      <point x="979" y="116" type="line"/>
      <point x="888" y="48"/>
      <point x="802" y="17"/>
      <point x="700" y="17" type="curve" smooth="yes"/>
      <point x="434" y="17"/>
      <point x="300" y="230"/>
      <point x="300" y="654" type="curve" smooth="yes"/>
      <point x="300" y="722" type="line" smooth="yes"/>
      <point x="300" y="1154"/>
      <point x="414" y="1360"/>
      <point x="653" y="1360" type="curve" smooth="yes"/>
      <point x="815" y="1360"/>
      <point x="896" y="1262"/>
      <point x="896" y="1065" type="curve" smooth="yes"/>
      <point x="896" y="977" type="line"/>
      <point x="887" y="977" type="line"/>
      <point x="838" y="1075"/>
      <point x="782" y="1116"/>
      <point x="695" y="1116" type="curve" smooth="yes"/>
      <point x="511" y="1116"/>
      <point x="390" y="940"/>
      <point x="390" y="673" type="curve" smooth="yes"/>
      <point x="390" y="647" type="line" smooth="yes"/>
      <point x="390" y="382"/>
      <point x="509" y="206"/>
      <point x="687" y="206" type="curve" smooth="yes"/>
      <point x="773" y="206"/>
      <point x="832" y="248"/>
      <point x="887" y="348" type="curve"/>
      <point x="896" y="348" type="line"/>
      <point x="896" y="217" type="line"/>
      <point x="1136" y="217" type="line"/>
      <point x="1136" y="1070" type="line" smooth="yes"/>
      <point x="1136" y="1414"/>
      <point x="959" y="1609"/>
      <point x="647" y="1609" type="curve" smooth="yes"/>
      <point x="251" y="1609"/>
      <point x="38" y="1298"/>
      <point x="38" y="717" type="curve" smooth="yes"/>
      <point x="38" y="659" type="line" smooth="yes"/>
      <point x="38" y="85"/>
      <point x="276" y="-233"/>
    </contour>
    <contour>
      <point x="759" y="441" type="curve" smooth="yes"/>
      <point x="674" y="441"/>
      <point x="623" y="516"/>
      <point x="623" y="643" type="curve" smooth="yes"/>
      <point x="623" y="679" type="line" smooth="yes"/>
      <point x="623" y="804"/>
      <point x="675" y="881"/>
      <point x="759" y="881" type="curve" smooth="yes"/>
      <point x="841" y="881"/>
      <point x="889" y="807"/>
      <point x="889" y="679" type="curve" smooth="yes"/>
      <point x="889" y="643" type="line" smooth="yes"/>
      <point x="889" y="513"/>
      <point x="843" y="441"/>
    </contour>
  </outline>
</glyph>
<glyph name="B" format="2">
  <advance width="1200"/>
  <unicode hex="0042"/>
  <outline>
    <contour>
      <point x="116" y="0" type="line"/>
      <point x="681" y="0" type="line" smooth="yes"/>
      <point x="966" y="0"/>
      <point x="1140" y="145"/>
      <point x="1140" y="372" type="curve" smooth="yes"/>
      <point x="1140" y="393" type="line" smooth="yes"/>
      <point x="1140" y="563"/>
      <point x="1045" y="694"/>
      <point x="866" y="742" type="curve"/>
      <point x="866" y="752" type="line"/>
      <point x="1006" y="806"/>
      <point x="1083" y="915"/>
      <point x="1083" y="1064" type="curve" smooth="yes"/>
      <point x="1083" y="1082" type="line" smooth="yes"/>
      <point x="1083" y="1282"/>
      <point x="936" y="1432"/>
      <point x="666" y="1432" type="curve" smooth="yes"/>
      <point x="116" y="1432" type="line"/>
    </contour>
    <contour>
      <point x="456" y="278" type="line"/>
      <point x="456" y="1154" type="line"/>
      <point x="588" y="1154" type="line" smooth="yes"/>
      <point x="687" y="1154"/>
      <point x="741" y="1099"/>
      <point x="741" y="1005" type="curve" smooth="yes"/>
      <point x="741" y="993" type="line" smooth="yes"/>
      <point x="741" y="899"/>
      <point x="689" y="844"/>
      <point x="588" y="844" type="curve" smooth="yes"/>
      <point x="389" y="844" type="line"/>
      <point x="389" y="610" type="line"/>
      <point x="627" y="610" type="line" smooth="yes"/>
      <point x="735" y="610"/>
      <point x="798" y="552"/>
      <point x="798" y="452" type="curve" smooth="yes"/>
      <point x="798" y="436" type="line" smooth="yes"/>
      <point x="798" y="336"/>
      <point x="741" y="278"/>
      <point x="633" y="278" type="curve" smooth="yes"/>
    </contour>
  </outline>
</glyph>
<glyph name="C" format="2">
  <advance width="1200"/>
  <unicode hex="0043"/>
  <anchor x="656" y="0" name="bottom"/>
  <anchor x="645" y="1432" name="top"/>
  <outline>
    <contour>
      <point x="658" y="-35" type="curve" smooth="yes"/>
      <point x="912" y="-35"/>
      <point x="1095" y="121"/>
      <point x="1152" y="385" type="curve"/>
      <point x="831" y="476" type="line"/>
      <point x="806" y="360"/>
      <point x="745" y="299"/>
      <point x="654" y="299" type="curve" smooth="yes"/>
      <point x="507" y="299"/>
      <point x="418" y="445"/>
      <point x="418" y="688" type="curve" smooth="yes"/>
      <point x="418" y="744" type="line" smooth="yes"/>
      <point x="418" y="991"/>
      <point x="500" y="1133"/>
      <point x="643" y="1133" type="curve" smooth="yes"/>
      <point x="736" y="1133"/>
      <point x="788" y="1081"/>
      <point x="813" y="966" type="curve"/>
      <point x="1134" y="1057" type="line"/>
      <point x="1078" y="1320"/>
      <point x="903" y="1467"/>
      <point x="647" y="1467" type="curve" smooth="yes"/>
      <point x="296" y="1467"/>
      <point x="68" y="1180"/>
      <point x="68" y="739" type="curve" smooth="yes"/>
      <point x="68" y="693" type="line" smooth="yes"/>
      <point x="68" y="256"/>
      <point x="304" y="-35"/>
    </contour>
  </outline>
</glyph>
<glyph name="D" format="2">
  <advance width="1200"/>
  <unicode hex="0044"/>
  <anchor x="568" y="1432" name="top"/>
  <outline>
    <contour>
      <point x="108" y="0" type="line"/>
      <point x="539" y="0" type="line" smooth="yes"/>
      <point x="897" y="0"/>
      <point x="1128" y="272"/>
      <point x="1128" y="693" type="curve" smooth="yes"/>
      <point x="1128" y="739" type="line" smooth="yes"/>
      <point x="1128" y="1160"/>
      <point x="897" y="1432"/>
      <point x="539" y="1432" type="curve" smooth="yes"/>
      <point x="108" y="1432" type="line"/>
    </contour>
    <contour>
      <point x="452" y="330" type="line"/>
      <point x="452" y="1102" type="line"/>
      <point x="536" y="1102" type="line" smooth="yes"/>
      <point x="696" y="1102"/>
      <point x="778" y="982"/>
      <point x="778" y="744" type="curve" smooth="yes"/>
      <point x="778" y="688" type="line" smooth="yes"/>
      <point x="778" y="449"/>
      <point x="698" y="330"/>
      <point x="536" y="330" type="curve" smooth="yes"/>
    </contour>
  </outline>
</glyph>
<glyph name="E" format="2">
  <advance width="1200"/>
  <unicode hex="0045"/>
  <anchor x="596" y="0" name="bottom"/>
  <anchor x="1062" y="0" name="ogonek"/>
  <anchor x="588" y="1432" name="top"/>
  <outline>
    <contour>
      <point x="130" y="0" type="line"/>
      <point x="1062" y="0" type="line"/>
      <point x="1062" y="322" type="line"/>
      <point x="474" y="322" type="line"/>
      <point x="474" y="1110" type="line"/>
      <point x="1046" y="1110" type="line"/>
      <point x="1046" y="1432" type="line"/>
      <point x="130" y="1432" type="line"/>
    </contour>
    <contour>
      <point x="346" y="570" type="line"/>
      <point x="966" y="570" type="line"/>
      <point x="966" y="888" type="line"/>
      <point x="346" y="888" type="line"/>
    </contour>
  </outline>
</glyph>
<glyph name="F" format="2">
  <advance width="1200"/>
  <unicode hex="0046"/>
  <outline>
    <contour>
      <point x="130" y="0" type="line"/>
      <point x="478" y="0" type="line"/>
      <point x="478" y="1106" type="line"/>
      <point x="1062" y="1106" type="line"/>
      <point x="1062" y="1432" type="line"/>
      <point x="130" y="1432" type="line"/>
    </contour>
    <contour>
      <point x="346" y="510" type="line"/>
      <point x="1002" y="510" type="line"/>
      <point x="1002" y="830" type="line"/>
      <point x="346" y="830" type="line"/>
    </contour>
  </outline>
</glyph>
<glyph name="I" format="2">
  <advance width="1200"/>
  <unicode hex="0049"/>
  <anchor x="600" y="0" name="bottom"/>
  <anchor x="789" y="0" name="ogonek"/>
  <anchor x="600" y="1432" name="top"/>
  <outline>
    <contour>
      <point x="425" y="155" type="line"/>
      <point x="775" y="155" type="line"/>
      <point x="775" y="1277" type="line"/>
      <point x="425" y="1277" type="line"/>
    </contour>
    <contour>
      <point x="130" y="0" type="line"/>
      <point x="1070" y="0" type="line"/>
      <point x="1070" y="326" type="line"/>
      <point x="130" y="326" type="line"/>
    </contour>
    <contour>
      <point x="130" y="1106" type="line"/>
      <point x="1070" y="1106" type="line"/>
      <point x="1070" y="1432" type="line"/>
      <point x="130" y="1432" type="line"/>
    </contour>
  </outline>
</glyph>
<glyph name="J" format="2">
  <advance width="1200"/>
  <unicode hex="004A"/>
  <anchor x="857" y="1432" name="top"/>
  <outline>
    <contour>
      <point x="600" y="-35" type="curve" smooth="yes"/>
      <point x="882" y="-35"/>
      <point x="1072" y="170"/>
      <point x="1072" y="469" type="curve" smooth="yes"/>
      <point x="1072" y="1432" type="line"/>
      <point x="722" y="1432" type="line"/>
      <point x="722" y="477" type="line" smooth="yes"/>
      <point x="722" y="364"/>
      <point x="671" y="299"/>
      <point x="582" y="299" type="curve" smooth="yes"/>
      <point x="498" y="299"/>
      <point x="441" y="353"/>
      <point x="417" y="458" type="curve"/>
      <point x="96" y="367" type="line"/>
      <point x="155" y="117"/>
      <point x="344" y="-35"/>
    </contour>
  </outline>
</glyph>
<glyph name="K" format="2">
  <advance width="1200"/>
  <unicode hex="004B"/>
  <anchor x="602" y="0" name="bottom"/>
  <outline>
    <contour>
      <point x="786" y="0" type="line"/>
      <point x="1180" y="0" type="line"/>
      <point x="744" y="799" type="line"/>
      <point x="744" y="667" type="line"/>
      <point x="1160" y="1432" type="line"/>
      <point x="770" y="1432" type="line"/>
      <point x="409" y="728" type="line"/>
      <point x="409" y="719" type="line"/>
    </contour>
    <contour>
      <point x="70" y="0" type="line"/>
      <point x="418" y="0" type="line"/>
      <point x="418" y="1432" type="line"/>
      <point x="70" y="1432" type="line"/>
    </contour>
  </outline>
</glyph>
<glyph name="T" format="2">
  <advance width="1200"/>
  <unicode hex="0054"/>
  <anchor x="600" y="0" name="bottom"/>
  <anchor x="600" y="1432" name="top"/>
  <outline>
    <contour>
      <point x="425" y="0" type="line"/>
      <point x="775" y="0" type="line"/>
      <point x="775" y="1261" type="line"/>
      <point x="425" y="1261" type="line"/>
    </contour>
    <contour>
      <point x="68" y="1104" type="line"/>
      <point x="1132" y="1104" type="line"/>
      <point x="1132" y="1432" type="line"/>
      <point x="68" y="1432" type="line"/>
    </contour>
  </outline>
</glyph>
<glyph name="U" format="2">
  <advance width="1200"/>
  <unicode hex="0055"/>
  <anchor x="600" y="-35" name="bottom"/>
  <anchor x="856" y="0" name="ogonek"/>
  <anchor x="600" y="1432" name="top"/>
  <outline>
    <contour>
      <point x="600" y="-35" type="curve" smooth="yes"/>
      <point x="909" y="-35"/>
      <point x="1110" y="169"/>
      <point x="1110" y="472" type="curve" smooth="yes"/>
      <point x="1110" y="1432" type="line"/>
      <point x="762" y="1432" type="line"/>
      <point x="762" y="486" type="line" smooth="yes"/>
      <point x="762" y="372"/>
      <point x="702" y="299"/>
      <point x="600" y="299" type="curve" smooth="yes"/>
      <point x="498" y="299"/>
      <point x="438" y="372"/>
      <point x="438" y="486" type="curve" smooth="yes"/>
      <point x="438" y="1432" type="line"/>
      <point x="90" y="1432" type="line"/>
      <point x="90" y="472" type="line" smooth="yes"/>
      <point x="90" y="169"/>
      <point x="291" y="-35"/>
    </contour>
  </outline>
</glyph>
<glyph name="V" format="2">
  <advance width="1200"/>
  <unicode hex="0056"/>
  <outline>
    <contour>
      <point x="454" y="0" type="line"/>
      <point x="746" y="0" type="line"/>
      <point x="1198" y="1432" type="line"/>
      <point x="849" y="1432" type="line"/>
      <point x="656" y="646" type="line"/>
      <point x="606" y="378" type="line"/>
      <point x="599" y="378" type="line"/>
      <point x="549" y="646" type="line"/>
      <point x="358" y="1432" type="line"/>
      <point x="2" y="1432" type="line"/>
    </contour>
  </outline>
</glyph>
<glyph name="X" format="2">
  <advance width="1200"/>
  <unicode hex="0058"/>
  <outline>
    <contour>
      <point x="817" y="0" type="line"/>
      <point x="1192" y="0" type="line"/>
      <point x="744" y="829" type="line"/>
      <point x="709" y="850" type="line"/>
      <point x="399" y="1432" type="line"/>
      <point x="24" y="1432" type="line"/>
      <point x="434" y="676" type="line"/>
      <point x="469" y="655" type="line"/>
    </contour>
    <contour>
      <point x="8" y="0" type="line"/>
      <point x="377" y="0" type="line"/>
      <point x="717" y="640" type="line"/>
      <point x="751" y="656" type="line"/>
      <point x="1176" y="1432" type="line"/>
      <point x="807" y="1432" type="line"/>
      <point x="482" y="824" type="line"/>
      <point x="448" y="808" type="line"/>
    </contour>
  </outline>
</glyph>
<glyph name="Y" format="2">
  <advance width="1200"/>
  <unicode hex="0059"/>
  <anchor x="600" y="0" name="bottom"/>
  <anchor x="604" y="1432" name="top"/>
  <outline>
    <contour>
      <point x="463" y="409" type="line"/>
      <point x="737" y="409" type="line"/>
      <point x="1188" y="1432" type="line"/>
      <point x="822" y="1432" type="line"/>
      <point x="700" y="1113" type="line"/>
      <point x="610" y="825" type="line"/>
      <point x="601" y="825" type="line"/>
      <point x="508" y="1113" type="line"/>
      <point x="386" y="1432" type="line"/>
      <point x="12" y="1432" type="line"/>
    </contour>
    <contour>
      <point x="426" y="0" type="line"/>
      <point x="774" y="0" type="line"/>
      <point x="774" y="692" type="line"/>
      <point x="426" y="692" type="line"/>
    </contour>
  </outline>
</glyph>
<glyph name="underscore" format="2">
  <advance width="1200"/>
  <unicode hex="005F"/>
  <outline>
    <contour>
      <point x="72" y="-325" type="line"/>
      <point x="1128" y="-325" type="line"/>
      <point x="1128" y="-35" type="line"/>
      <point x="72" y="-35" type="line"/>
    </contour>
  </outline>
</glyph>
<glyph name="b" format="2">
  <advance width="1200"/>
  <unicode hex="0062"/>
  <outline>
    <contour>
      <point x="744" y="-35" type="curve" smooth="yes"/>
      <point x="969" y="-35"/>
      <point x="1120" y="188"/>
      <point x="1120" y="522" type="curve" smooth="yes"/>
      <point x="1120" y="532" type="line" smooth="yes"/>
      <point x="1120" y="868"/>
      <point x="972" y="1089"/>
      <point x="748" y="1089" type="curve" smooth="yes"/>
      <point x="625" y="1089"/>
      <point x="530" y="1031"/>
      <point x="460" y="911" type="curve"/>
      <point x="450" y="911" type="line"/>
      <point x="450" y="1460" type="line"/>
      <point x="108" y="1460" type="line"/>
      <point x="108" y="0" type="line"/>
      <point x="441" y="0" type="line"/>
      <point x="441" y="151" type="line"/>
      <point x="451" y="151" type="line"/>
      <point x="513" y="33"/>
      <point x="621" y="-35"/>
    </contour>
    <contour>
      <point x="614" y="244" type="curve" smooth="yes"/>
      <point x="508" y="244"/>
      <point x="440" y="352"/>
      <point x="440" y="521" type="curve" smooth="yes"/>
      <point x="440" y="532" type="line" smooth="yes"/>
      <point x="440" y="701"/>
      <point x="508" y="810"/>
      <point x="613" y="810" type="curve" smooth="yes"/>
      <point x="719" y="810"/>
      <point x="778" y="714"/>
      <point x="778" y="539" type="curve" smooth="yes"/>
      <point x="778" y="515" type="line" smooth="yes"/>
      <point x="778" y="340"/>
      <point x="720" y="244"/>
    </contour>
  </outline>
</glyph>
<glyph name="g" format="2">
  <advance width="1200"/>
  <unicode hex="0067"/>
  <anchor x="595" y="1054" name="top"/>
  <outline>
    <contour>
      <point x="601" y="-572" type="curve" smooth="yes"/>
      <point x="962" y="-572"/>
      <point x="1185" y="-408"/>
      <point x="1185" y="-144" type="curve" smooth="yes"/>
      <point x="1185" y="50"/>
      <point x="1057" y="163"/>
      <point x="838" y="163" type="curve" smooth="yes"/>
      <point x="561" y="163" type="line"/>
      <point x="618" y="341" type="line"/>
      <point x="443" y="361" type="line"/>
      <point x="228" y="23" type="line"/>
      <point x="228" y="-88" type="line"/>
      <point x="768" y="-88" type="line" smooth="yes"/>
      <point x="848" y="-88"/>
      <point x="885" y="-117"/>
      <point x="885" y="-178" type="curve" smooth="yes"/>
      <point x="885" y="-266"/>
      <point x="777" y="-321"/>
      <point x="604" y="-321" type="curve" smooth="yes"/>
      <point x="426" y="-321"/>
      <point x="325" y="-257"/>
      <point x="325" y="-146" type="curve" smooth="yes"/>
      <point x="325" y="-103"/>
      <point x="334" y="-68"/>
      <point x="357" y="-29" type="curve"/>
      <point x="311" y="104" type="line"/>
      <point x="131" y="70"/>
      <point x="25" y="-43"/>
      <point x="25" y="-197" type="curve" smooth="yes"/>
      <point x="25" y="-418"/>
      <point x="260" y="-572"/>
    </contour>
    <contour>
      <point x="612" y="270" type="curve" smooth="yes"/>
      <point x="890" y="270"/>
      <point x="1082" y="435"/>
      <point x="1082" y="677" type="curve" smooth="yes"/>
      <point x="1082" y="681" type="line" smooth="yes"/>
      <point x="1082" y="913"/>
      <point x="869" y="1088"/>
      <point x="589" y="1088" type="curve" smooth="yes"/>
      <point x="311" y="1088"/>
      <point x="120" y="923"/>
      <point x="120" y="681" type="curve" smooth="yes"/>
      <point x="120" y="677" type="line" smooth="yes"/>
      <point x="120" y="445"/>
      <point x="332" y="270"/>
    </contour>
    <contour>
      <point x="601" y="530" type="curve" smooth="yes"/>
      <point x="485" y="530"/>
      <point x="420" y="582"/>
      <point x="420" y="675" type="curve" smooth="yes"/>
      <point x="420" y="680" type="line" smooth="yes"/>
      <point x="420" y="773"/>
      <point x="485" y="826"/>
      <point x="601" y="826" type="curve" smooth="yes"/>
      <point x="715" y="826"/>
      <point x="781" y="773"/>
      <point x="781" y="680" type="curve" smooth="yes"/>
      <point x="781" y="675" type="line" smooth="yes"/>
      <point x="781" y="582"/>
      <point x="715" y="530"/>
    </contour>
    <contour>
      <point x="842" y="923" type="line"/>
      <point x="908" y="991"/>
      <point x="1010" y="1024"/>
      <point x="1156" y="1024" type="curve"/>
      <point x="1156" y="1291" type="line"/>
      <point x="921" y="1291"/>
      <point x="777" y="1188"/>
      <point x="735" y="989" type="curve"/>
    </contour>
  </outline>
</glyph>
<glyph name="m" format="2">
  <advance width="1200"/>
  <unicode hex="006D"/>
  <outline>
    <contour>
      <point x="34" y="0" type="line"/>
      <point x="333" y="0" type="line"/>
      <point x="333" y="677" type="line" smooth="yes"/>
      <point x="333" y="762"/>
      <point x="356" y="806"/>
      <point x="403" y="806" type="curve" smooth="yes"/>
      <point x="436" y="806"/>
      <point x="452" y="774"/>
      <point x="452" y="700" type="curve" smooth="yes"/>
      <point x="452" y="0" type="line"/>
      <point x="751" y="0" type="line"/>
      <point x="751" y="678" type="line" smooth="yes"/>
      <point x="751" y="761"/>
      <point x="776" y="806"/>
      <point x="821" y="806" type="curve" smooth="yes"/>
      <point x="854" y="806"/>
      <point x="869" y="775"/>
      <point x="869" y="704" type="curve" smooth="yes"/>
      <point x="869" y="0" type="line"/>
      <point x="1168" y="0" type="line"/>
      <point x="1168" y="749" type="line" smooth="yes"/>
      <point x="1168" y="974"/>
      <point x="1093" y="1089"/>
      <point x="955" y="1089" type="curve" smooth="yes"/>
      <point x="840" y="1089"/>
      <point x="759" y="1002"/>
      <point x="712" y="844" type="curve"/>
      <point x="734" y="847" type="line"/>
      <point x="724" y="1001"/>
      <point x="655" y="1089"/>
      <point x="543" y="1089" type="curve" smooth="yes"/>
      <point x="440" y="1089"/>
      <point x="375" y="1027"/>
      <point x="326" y="910" type="curve"/>
      <point x="316" y="910" type="line"/>
      <point x="316" y="1054" type="line"/>
      <point x="34" y="1054" type="line"/>
    </contour>
  </outline>
</glyph>
<glyph name="v" format="2">
  <advance width="1200"/>
  <unicode hex="0076"/>
  <outline>
    <contour>
      <point x="426" y="0" type="line"/>
      <point x="774" y="0" type="line"/>
      <point x="1156" y="1054" type="line"/>
      <point x="798" y="1054" type="line"/>
      <point x="674" y="621" type="line"/>
      <point x="611" y="332" type="line"/>
      <point x="601" y="332" type="line"/>
      <point x="538" y="621" type="line"/>
      <point x="406" y="1054" type="line"/>
      <point x="44" y="1054" type="line"/>
    </contour>
  </outline>
</glyph>
<glyph name="y" format="2">
  <advance width="1200"/>
  <unicode hex="0079"/>
  <anchor x="943" y="0" name="bottom"/>
  <anchor x="632" y="1054" name="top"/>
  <outline>
    <contour>
      <point x="328" y="-451" type="curve" smooth="yes"/>
      <point x="540" y="-451"/>
      <point x="667" y="-347"/>
      <point x="758" y="-102" type="curve" smooth="yes"/>
      <point x="1186" y="1054" type="line"/>
      <point x="834" y="1054" type="line"/>
      <point x="710" y="621" type="line"/>
      <point x="618" y="217" type="line"/>
      <point x="551" y="217" type="line"/>
      <point x="453" y="-49" type="line" smooth="yes"/>
      <point x="426" y="-123"/>
      <point x="387" y="-153"/>
      <point x="320" y="-153" type="curve" smooth="yes"/>
      <point x="267" y="-153"/>
      <point x="224" y="-134"/>
      <point x="169" y="-88" type="curve"/>
      <point x="7" y="-340" type="line"/>
      <point x="94" y="-413"/>
      <point x="205" y="-451"/>
    </contour>
    <contour>
      <point x="494" y="-84" type="line"/>
      <point x="739" y="332" type="line"/>
      <point x="629" y="332" type="line"/>
      <point x="560" y="621" type="line"/>
      <point x="428" y="1054" type="line"/>
      <point x="74" y="1054" type="line"/>
    </contour>
  </outline>
</glyph>
<glyph name="z" format="2">
  <advance width="1200"/>
  <unicode hex="007A"/>
  <anchor x="605" y="1054" name="top"/>
  <outline>
    <contour>
      <point x="142" y="0" type="line"/>
      <point x="1058" y="0" type="line"/>
      <point x="1058" y="278" type="line"/>
      <point x="529" y="278" type="line"/>
      <point x="1048" y="786" type="line"/>
      <point x="1048" y="1054" type="line"/>
      <point x="162" y="1054" type="line"/>
      <point x="162" y="776" type="line"/>
      <point x="662" y="776" type="line"/>
      <point x="142" y="267" type="line"/>
    </contour>
  </outline>
</glyph>
<glyph name="bar" format="2">
  <advance width="1200"/>
  <unicode hex="007C"/>
  <outline>
    <contour>
      <point x="428" y="-346" type="line"/>
      <point x="772" y="-346" type="line"/>
      <point x="772" y="1778" type="line"/>
      <point x="428" y="1778" type="line"/>
    </contour>
  </outline>
</glyph>
<glyph name="asciitilde" format="2">
  <advance width="1200"/>
  <unicode hex="007E"/>
  <outline>
    <contour>
      <point x="851" y="544" type="curve" smooth="yes"/>
      <point x="1045" y="544"/>
      <point x="1144" y="674"/>
      <point x="1144" y="928" type="curve" smooth="yes"/>
      <point x="1144" y="1033" type="line"/>
      <point x="826" y="1033" type="line"/>
      <point x="826" y="953" type="line" smooth="yes"/>
      <point x="826" y="891"/>
      <point x="801" y="858"/>
      <point x="752" y="858" type="curve" smooth="yes"/>
      <point x="716" y="858"/>
      <point x="684" y="874"/>
      <point x="621" y="924" type="curve" smooth="yes"/>
      <point x="521" y="1003"/>
      <point x="451" y="1037"/>
      <point x="359" y="1037" type="curve" smooth="yes"/>
      <point x="159" y="1037"/>
      <point x="56" y="907"/>
      <point x="56" y="653" type="curve" smooth="yes"/>
      <point x="56" y="548" type="line"/>
      <point x="374" y="548" type="line"/>
      <point x="374" y="628" type="line" smooth="yes"/>
      <point x="374" y="690"/>
      <point x="399" y="723"/>
      <point x="448" y="723" type="curve" smooth="yes"/>
      <point x="485" y="723"/>
      <point x="515" y="708"/>
      <point x="579" y="658" type="curve" smooth="yes"/>
      <point x="684" y="575"/>
      <point x="758" y="544"/>
    </contour>
  </outline>
</glyph>
<glyph name="sterling" format="2">
  <advance width="1200"/>
  <unicode hex="00A3"/>
  <outline>
    <contour>
      <point x="313" y="-15" type="line"/>
      <point x="349" y="49"/>
      <point x="400" y="80"/>
      <point x="477" y="80" type="curve" smooth="yes"/>
      <point x="597" y="80"/>
      <point x="721" y="0"/>
      <point x="861" y="0" type="curve" smooth="yes"/>
      <point x="1038" y="0"/>
      <point x="1128" y="127"/>
      <point x="1178" y="324" type="curve"/>
      <point x="874" y="409" type="line"/>
      <point x="853" y="331"/>
      <point x="829" y="300"/>
      <point x="766" y="300" type="curve" smooth="yes"/>
      <point x="701" y="300"/>
      <point x="625" y="350"/>
      <point x="543" y="350" type="curve"/>
      <point x="543" y="368" type="line"/>
      <point x="651" y="411"/>
      <point x="691" y="462"/>
      <point x="691" y="557" type="curve" smooth="yes"/>
      <point x="691" y="694"/>
      <point x="577" y="859"/>
      <point x="577" y="1013" type="curve" smooth="yes"/>
      <point x="577" y="1108"/>
      <point x="638" y="1167"/>
      <point x="733" y="1167" type="curve" smooth="yes"/>
      <point x="803" y="1167"/>
      <point x="847" y="1141"/>
      <point x="905" y="1083" type="curve"/>
      <point x="1101" y="1310" type="line"/>
      <point x="986" y="1420"/>
      <point x="867" y="1467"/>
      <point x="700" y="1467" type="curve" smooth="yes"/>
      <point x="416" y="1467"/>
      <point x="227" y="1297"/>
      <point x="227" y="1053" type="curve" smooth="yes"/>
      <point x="227" y="848"/>
      <point x="371" y="698"/>
      <point x="371" y="531" type="curve" smooth="yes"/>
      <point x="371" y="450"/>
      <point x="343" y="407"/>
      <point x="262" y="357" type="curve" smooth="yes"/>
      <point x="173" y="302"/>
      <point x="108" y="233"/>
      <point x="50" y="129" type="curve"/>
    </contour>
    <contour>
      <point x="60" y="658" type="line"/>
      <point x="988" y="658" type="line"/>
      <point x="988" y="878" type="line"/>
      <point x="60" y="878" type="line"/>
    </contour>
  </outline>
</glyph>
<glyph name="yen" format="2">
  <advance width="1200"/>
  <unicode hex="00A5"/>
  <outline>
    <contour>
      <point x="445" y="518" type="line"/>
      <point x="755" y="518" type="line"/>
      <point x="1188" y="1432" type="line"/>
      <point x="822" y="1432" type="line"/>
      <point x="704" y="1113" type="line"/>
      <point x="610" y="811" type="line"/>
      <point x="601" y="811" type="line"/>
      <point x="504" y="1113" type="line"/>
      <point x="386" y="1432" type="line"/>
      <point x="12" y="1432" type="line"/>
    </contour>
    <contour>
      <point x="436" y="0" type="line"/>
      <point x="764" y="0" type="line"/>
      <point x="764" y="692" type="line"/>
      <point x="436" y="692" type="line"/>
    </contour>
    <contour>
      <point x="125" y="530" type="line"/>
      <point x="1075" y="530" type="line"/>
      <point x="1075" y="730" type="line"/>
      <point x="125" y="730" type="line"/>
    </contour>
    <contour>
      <point x="125" y="210" type="line"/>
      <point x="1075" y="210" type="line"/>
      <point x="1075" y="410" type="line"/>
      <point x="125" y="410" type="line"/>
    </contour>
  </outline>
</glyph>
<glyph name="brokenbar" format="2">
  <advance width="1200"/>
  <unicode hex="00A6"/>
  <outline>
    <contour>
      <point x="428" y="928" type="line"/>
      <point x="772" y="928" type="line"/>
      <point x="772" y="1778" type="line"/>
      <point x="428" y="1778" type="line"/>
    </contour>
    <contour>
      <point x="428" y="-346" type="line"/>
      <point x="772" y="-346" type="line"/>
      <point x="772" y="504" type="line"/>
      <point x="428" y="504" type="line"/>
    </contour>
  </outline>
</glyph>
<glyph name="copyright" format="2">
  <advance width="1200"/>
  <unicode hex="00A9"/>
  <outline>
    <contour>
      <point x="600" y="-30" type="curve" smooth="yes"/>
      <point x="961" y="-30"/>
      <point x="1192" y="237"/>
      <point x="1192" y="654" type="curve" smooth="yes"/>
      <point x="1192" y="783" type="line" smooth="yes"/>
      <point x="1192" y="1200"/>
      <point x="961" y="1467"/>
      <point x="600" y="1467" type="curve" smooth="yes"/>
      <point x="239" y="1467"/>
      <point x="8" y="1200"/>
      <point x="8" y="783" type="curve" smooth="yes"/>
      <point x="8" y="654" type="line" smooth="yes"/>
      <point x="8" y="237"/>
      <point x="239" y="-30"/>
    </contour>
    <contour>
      <point x="600" y="60" type="curve" smooth="yes"/>
      <point x="292" y="60"/>
      <point x="108" y="282"/>
      <point x="108" y="653" type="curve" smooth="yes"/>
      <point x="108" y="784" type="line" smooth="yes"/>
      <point x="108" y="1155"/>
      <point x="292" y="1377"/>
      <point x="600" y="1377" type="curve" smooth="yes"/>
      <point x="908" y="1377"/>
      <point x="1092" y="1155"/>
      <point x="1092" y="784" type="curve" smooth="yes"/>
      <point x="1092" y="653" type="line" smooth="yes"/>
      <point x="1092" y="282"/>
      <point x="908" y="60"/>
    </contour>
    <contour>
      <point x="617" y="284" type="curve" smooth="yes"/>
      <point x="798" y="284"/>
      <point x="917" y="401"/>
      <point x="936" y="599" type="curve"/>
      <point x="754" y="612" type="line"/>
      <point x="745" y="509"/>
      <point x="698" y="456"/>
      <point x="613" y="456" type="curve" smooth="yes"/>
      <point x="508" y="456"/>
      <point x="452" y="537"/>
      <point x="452" y="688" type="curve" smooth="yes"/>
      <point x="452" y="752" type="line" smooth="yes"/>
      <point x="452" y="903"/>
      <point x="508" y="984"/>
      <point x="613" y="984" type="curve" smooth="yes"/>
      <point x="697" y="984"/>
      <point x="745" y="930"/>
      <point x="754" y="828" type="curve"/>
      <point x="936" y="841" type="line"/>
      <point x="917" y="1039"/>
      <point x="798" y="1156"/>
      <point x="617" y="1156" type="curve" smooth="yes"/>
      <point x="405" y="1156"/>
      <point x="274" y="1001"/>
      <point x="274" y="750" type="curve" smooth="yes"/>
      <point x="274" y="690" type="line" smooth="yes"/>
      <point x="274" y="439"/>
      <point x="405" y="284"/>
    </contour>
  </outline>
</glyph>
<glyph name="guillemetleft" format="2">
  <advance width="1200"/>
  <unicode hex="00AB"/>
  <outline>
    <contour>
      <point x="1000" y="2" type="line"/>
      <point x="1192" y="168" type="line"/>
      <point x="881" y="532" type="line"/>
      <point x="1192" y="896" type="line"/>
      <point x="1000" y="1062" type="line"/>
      <point x="514" y="532" type="line"/>
    </contour>
    <contour>
      <point x="487" y="2" type="line"/>
      <point x="682" y="164" type="line"/>
      <point x="369" y="532" type="line"/>
      <point x="682" y="900" type="line"/>
      <point x="487" y="1062" type="line"/>
      <point x="2" y="532" type="line"/>
    </contour>
  </outline>
</glyph>
<glyph name="logicalnot" format="2">
  <advance width="1200"/>
  <unicode hex="00AC"/>
  <outline>
    <contour>
      <point x="756" y="91" type="line"/>
      <point x="1086" y="91" type="line"/>
      <point x="1086" y="805" type="line"/>
      <point x="114" y="805" type="line"/>
      <point x="114" y="485" type="line"/>
      <point x="866" y="485" type="line"/>
      <point x="756" y="595" type="line"/>
    </contour>
  </outline>
</glyph>
<glyph name="degree" format="2">
  <advance width="1200"/>
  <unicode hex="00B0"/>
  <outline>
    <contour>
      <point x="595" y="667" type="curve" smooth="yes"/>
      <point x="832" y="667"/>
      <point x="1010" y="838"/>
      <point x="1010" y="1067" type="curve" smooth="yes"/>
      <point x="1010" y="1296"/>
      <point x="832" y="1467"/>
      <point x="595" y="1467" type="curve" smooth="yes"/>
      <point x="358" y="1467"/>
      <point x="180" y="1296"/>
      <point x="180" y="1067" type="curve" smooth="yes"/>
      <point x="180" y="838"/>
      <point x="358" y="667"/>
    </contour>
    <contour>
      <point x="595" y="917" type="curve" smooth="yes"/>
      <point x="510" y="917"/>
      <point x="450" y="979"/>
      <point x="450" y="1067" type="curve" smooth="yes"/>
      <point x="450" y="1155"/>
      <point x="510" y="1217"/>
      <point x="595" y="1217" type="curve" smooth="yes"/>
      <point x="680" y="1217"/>
      <point x="740" y="1155"/>
      <point x="740" y="1067" type="curve" smooth="yes"/>
      <point x="740" y="979"/>
      <point x="680" y="917"/>
    </contour>
  </outline>
</glyph>
<glyph name="paragraph" format="2">
  <advance width="1200"/>
  <unicode hex="00B6"/>
  <guideline x="-752" y="-406" angle="0"/>
  <outline>
    <contour>
      <point x="461" y="-406" type="line"/>
      <point x="721" y="-406" type="line"/>
      <point x="721" y="1432" type="line"/>
      <point x="544" y="1432" type="line" smooth="yes"/>
      <point x="208" y="1432"/>
      <point x="30" y="1268"/>
      <point x="30" y="1001" type="curve" smooth="yes"/>
      <point x="30" y="991" type="line" smooth="yes"/>
      <point x="30" y="724"/>
      <point x="208" y="560"/>
      <point x="544" y="560" type="curve" smooth="yes"/>
      <point x="556" y="560" type="line"/>
      <point x="461" y="611" type="line"/>
    </contour>
    <contour>
      <point x="860" y="-406" type="line"/>
      <point x="1120" y="-406" type="line"/>
      <point x="1120" y="1432" type="line"/>
      <point x="860" y="1432" type="line"/>
    </contour>
  </outline>
</glyph>
<glyph name="ordmasculine" format="2">
  <advance width="1200"/>
  <unicode hex="00BA"/>
  <outline>
    <contour>
      <point x="558" y="563" type="curve" smooth="yes"/>
      <point x="824" y="563"/>
      <point x="1016" y="748"/>
      <point x="1016" y="998" type="curve" smooth="yes"/>
      <point x="1016" y="1032" type="line" smooth="yes"/>
      <point x="1016" y="1282"/>
      <point x="824" y="1467"/>
      <point x="558" y="1467" type="curve" smooth="yes"/>
      <point x="292" y="1467"/>
      <point x="100" y="1282"/>
      <point x="100" y="1032" type="curve" smooth="yes"/>
      <point x="100" y="998" type="line" smooth="yes"/>
      <point x="100" y="748"/>
      <point x="292" y="563"/>
    </contour>
    <contour>
      <point x="558" y="831" type="curve" smooth="yes"/>
      <point x="460" y="831"/>
      <point x="408" y="903"/>
      <point x="408" y="1003" type="curve" smooth="yes"/>
      <point x="408" y="1026" type="line" smooth="yes"/>
      <point x="408" y="1126"/>
      <point x="460" y="1199"/>
      <point x="558" y="1199" type="curve" smooth="yes"/>
      <point x="656" y="1199"/>
      <point x="708" y="1126"/>
      <point x="708" y="1026" type="curve" smooth="yes"/>
      <point x="708" y="1003" type="line" smooth="yes"/>
      <point x="708" y="903"/>
      <point x="656" y="831"/>
    </contour>
  </outline>
</glyph>
<glyph name="threequarters" format="2">
  <advance width="1200"/>
  <unicode hex="00BE"/>
  <outline>
    <contour>
      <point x="883" y="-35" type="line"/>
      <point x="1081" y="-35" type="line"/>
      <point x="1081" y="684" type="line"/>
      <point x="857" y="684" type="line"/>
      <point x="540" y="276" type="line"/>
      <point x="540" y="71" type="line"/>
      <point x="1164" y="71" type="line"/>
      <point x="1164" y="259" type="line"/>
      <point x="983" y="259" type="line"/>
      <point x="959" y="251" type="line"/>
      <point x="751" y="251" type="line"/>
      <point x="751" y="261" type="line"/>
      <point x="881" y="428" type="line"/>
      <point x="919" y="428" type="line"/>
      <point x="891" y="462" type="line"/>
      <point x="891" y="192" type="line"/>
      <point x="883" y="172" type="line"/>
    </contour>
    <contour>
      <point x="302" y="714" type="curve" smooth="yes"/>
      <point x="452" y="714"/>
      <point x="560" y="803"/>
      <point x="560" y="923" type="curve" smooth="yes"/>
      <point x="560" y="927" type="line" smooth="yes"/>
      <point x="560" y="1008"/>
      <point x="517" y="1065"/>
      <point x="424" y="1092" type="curve"/>
      <point x="424" y="1102" type="line"/>
      <point x="504" y="1133"/>
      <point x="548" y="1192"/>
      <point x="548" y="1268" type="curve" smooth="yes"/>
      <point x="548" y="1272" type="line" smooth="yes"/>
      <point x="548" y="1391"/>
      <point x="457" y="1460"/>
      <point x="302" y="1460" type="curve" smooth="yes"/>
      <point x="140" y="1460"/>
      <point x="40" y="1394"/>
      <point x="8" y="1282" type="curve"/>
      <point x="209" y="1228" type="line"/>
      <point x="217" y="1260"/>
      <point x="241" y="1276"/>
      <point x="280" y="1276" type="curve" smooth="yes"/>
      <point x="327" y="1276"/>
      <point x="346" y="1256"/>
      <point x="346" y="1217" type="curve" smooth="yes"/>
      <point x="346" y="1211" type="line" smooth="yes"/>
      <point x="346" y="1166"/>
      <point x="315" y="1145"/>
      <point x="253" y="1145" type="curve" smooth="yes"/>
      <point x="152" y="1145" type="line"/>
      <point x="152" y="1033" type="line"/>
      <point x="259" y="1033" type="line" smooth="yes"/>
      <point x="332" y="1033"/>
      <point x="358" y="1011"/>
      <point x="358" y="967" type="curve" smooth="yes"/>
      <point x="358" y="961" type="line" smooth="yes"/>
      <point x="358" y="923"/>
      <point x="332" y="898"/>
      <point x="289" y="898" type="curve" smooth="yes"/>
      <point x="240" y="898"/>
      <point x="214" y="922"/>
      <point x="202" y="960" type="curve"/>
      <point x="4" y="896" type="line"/>
      <point x="38" y="779"/>
      <point x="144" y="714"/>
    </contour>
    <contour>
      <point x="71" y="-35" type="line"/>
      <point x="259" y="-35" type="line"/>
      <point x="1188" y="1460" type="line"/>
      <point x="1000" y="1460" type="line"/>
    </contour>
  </outline>
</glyph>
<glyph name="multiply" format="2">
  <advance width="1200"/>
  <unicode hex="00D7"/>
  <outline>
    <contour>
      <point x="326" y="145" type="line"/>
      <point x="1100" y="918" type="line"/>
      <point x="874" y="1144" type="line"/>
      <point x="100" y="371" type="line"/>
    </contour>
    <contour>
      <point x="874" y="145" type="line"/>
      <point x="1100" y="371" type="line"/>
      <point x="326" y="1144" type="line"/>
      <point x="100" y="918" type="line"/>
    </contour>
  </outline>
</glyph>
<glyph name="Oslash" format="2">
  <advance width="1200"/>
  <unicode hex="00D8"/>
  <guideline x="1150" y="739" angle="90"/>
  <outline>
    <contour>
      <point x="212" y="-229" type="line"/>
      <point x="1180" y="1559" type="line"/>
      <point x="988" y="1661" type="line"/>
      <point x="20" y="-127" type="line"/>
    </contour>
    <contour>
      <point x="610" y="-35" type="curve" smooth="yes"/>
      <point x="952" y="-35"/>
      <point x="1156" y="237"/>
      <point x="1156" y="693" type="curve" smooth="yes"/>
      <point x="1156" y="739" type="line" smooth="yes"/>
      <point x="1156" y="1175"/>
      <point x="924" y="1467"/>
      <point x="590" y="1467" type="curve" smooth="yes"/>
      <point x="248" y="1467"/>
      <point x="44" y="1195"/>
      <point x="44" y="739" type="curve" smooth="yes"/>
      <point x="44" y="693" type="line" smooth="yes"/>
      <point x="44" y="257"/>
      <point x="276" y="-35"/>
    </contour>
    <contour>
      <point x="580" y="265" type="curve" smooth="yes"/>
      <point x="413" y="265"/>
      <point x="364" y="375"/>
      <point x="364" y="658" type="curve" smooth="yes"/>
      <point x="364" y="754" type="line" smooth="yes"/>
      <point x="364" y="1031"/>
      <point x="451" y="1167"/>
      <point x="620" y="1167" type="curve" smooth="yes"/>
      <point x="787" y="1167"/>
      <point x="836" y="1057"/>
      <point x="836" y="774" type="curve" smooth="yes"/>
      <point x="836" y="678" type="line" smooth="yes"/>
      <point x="836" y="401"/>
      <point x="749" y="265"/>
    </contour>
  </outline>
</glyph>
<glyph name="germandbls" format="2">
  <advance width="1200"/>
  <unicode hex="00DF"/>
  <guideline x="559" y="660" angle="90"/>
  <outline>
    <contour>
      <point x="775" y="-35" type="curve" smooth="yes"/>
      <point x="1022" y="-35"/>
      <point x="1180" y="108"/>
      <point x="1180" y="331" type="curve" smooth="yes"/>
      <point x="1180" y="333" type="line" smooth="yes"/>
      <point x="1180" y="483"/>
      <point x="1125" y="582"/>
      <point x="1002" y="656" type="curve" smooth="yes"/>
      <point x="932" y="698" type="line" smooth="yes"/>
      <point x="873" y="733"/>
      <point x="852" y="761"/>
      <point x="852" y="803" type="curve" smooth="yes"/>
      <point x="852" y="807" type="line" smooth="yes"/>
      <point x="852" y="904"/>
      <point x="1022" y="970"/>
      <point x="1022" y="1150" type="curve" smooth="yes"/>
      <point x="1022" y="1154" type="line" smooth="yes"/>
      <point x="1022" y="1359"/>
      <point x="857" y="1494"/>
      <point x="602" y="1494" type="curve" smooth="yes"/>
      <point x="290" y="1494"/>
      <point x="100" y="1322"/>
      <point x="100" y="1036" type="curve" smooth="yes"/>
      <point x="100" y="0" type="line"/>
      <point x="440" y="0" type="line"/>
      <point x="440" y="1028" type="line" smooth="yes"/>
      <point x="440" y="1140"/>
      <point x="497" y="1204"/>
      <point x="588" y="1204" type="curve" smooth="yes"/>
      <point x="662" y="1204"/>
      <point x="702" y="1160"/>
      <point x="702" y="1095" type="curve" smooth="yes"/>
      <point x="702" y="1093" type="line" smooth="yes"/>
      <point x="702" y="973"/>
      <point x="532" y="912"/>
      <point x="532" y="746" type="curve" smooth="yes"/>
      <point x="532" y="744" type="line" smooth="yes"/>
      <point x="532" y="658"/>
      <point x="569" y="598"/>
      <point x="655" y="547" type="curve" smooth="yes"/>
      <point x="725" y="505" type="line" smooth="yes"/>
      <point x="827" y="444"/>
      <point x="860" y="405"/>
      <point x="860" y="344" type="curve" smooth="yes"/>
      <point x="860" y="340" type="line" smooth="yes"/>
      <point x="860" y="270"/>
      <point x="810" y="231"/>
      <point x="723" y="231" type="curve" smooth="yes"/>
      <point x="677" y="231"/>
      <point x="637" y="239"/>
      <point x="590" y="257" type="curve"/>
      <point x="523" y="0" type="line"/>
      <point x="610" y="-25"/>
      <point x="680" y="-35"/>
    </contour>
  </outline>
</glyph>
<glyph name="ae" format="2">
  <advance width="1200"/>
  <unicode hex="00E6"/>
  <guideline x="382" y="205" angle="0"/>
  <anchor x="615" y="1054" name="top"/>
  <outline>
    <contour>
      <point x="339" y="-35" type="curve" smooth="yes"/>
      <point x="517" y="-35"/>
      <point x="629" y="84"/>
      <point x="682" y="329" type="curve"/>
      <point x="507" y="329" type="line"/>
      <point x="548" y="100"/>
      <point x="675" y="-35"/>
      <point x="849" y="-35" type="curve" smooth="yes"/>
      <point x="1014" y="-35"/>
      <point x="1119" y="60"/>
      <point x="1183" y="269" type="curve"/>
      <point x="934" y="356" type="line"/>
      <point x="906" y="245"/>
      <point x="877" y="205"/>
      <point x="828" y="205" type="curve" smooth="yes"/>
      <point x="759" y="205"/>
      <point x="719" y="312"/>
      <point x="719" y="501" type="curve" smooth="yes"/>
      <point x="719" y="530" type="line" smooth="yes"/>
      <point x="719" y="742"/>
      <point x="753" y="837"/>
      <point x="827" y="837" type="curve" smooth="yes"/>
      <point x="891" y="837"/>
      <point x="922" y="768"/>
      <point x="922" y="626" type="curve"/>
      <point x="932" y="635" type="line"/>
      <point x="607" y="635" type="line"/>
      <point x="607" y="449" type="line"/>
      <point x="1185" y="449" type="line"/>
      <point x="1189" y="507"/>
      <point x="1190" y="545"/>
      <point x="1190" y="595" type="curve" smooth="yes"/>
      <point x="1190" y="909"/>
      <point x="1069" y="1089"/>
      <point x="857" y="1089" type="curve" smooth="yes"/>
      <point x="694" y="1089"/>
      <point x="577" y="989"/>
      <point x="521" y="802" type="curve"/>
      <point x="689" y="802" type="line"/>
      <point x="653" y="985"/>
      <point x="537" y="1089"/>
      <point x="368" y="1089" type="curve" smooth="yes"/>
      <point x="236" y="1089"/>
      <point x="128" y="1031"/>
      <point x="40" y="914" type="curve"/>
      <point x="210" y="752" type="line"/>
      <point x="264" y="812"/>
      <point x="306" y="837"/>
      <point x="352" y="837" type="curve" smooth="yes"/>
      <point x="419" y="837"/>
      <point x="446" y="783"/>
      <point x="446" y="652" type="curve" smooth="yes"/>
      <point x="446" y="369" type="line" smooth="yes"/>
      <point x="446" y="253"/>
      <point x="426" y="205"/>
      <point x="379" y="205" type="curve" smooth="yes"/>
      <point x="335" y="205"/>
      <point x="310" y="250"/>
      <point x="310" y="331" type="curve" smooth="yes"/>
      <point x="310" y="347" type="line" smooth="yes"/>
      <point x="310" y="428"/>
      <point x="338" y="470"/>
      <point x="394" y="470" type="curve" smooth="yes"/>
      <point x="423" y="470"/>
      <point x="448" y="460"/>
      <point x="473" y="440" type="curve"/>
      <point x="473" y="626" type="line"/>
      <point x="437" y="649"/>
      <point x="377" y="664"/>
      <point x="320" y="664" type="curve" smooth="yes"/>
      <point x="128" y="664"/>
      <point x="5" y="530"/>
      <point x="5" y="321" type="curve" smooth="yes"/>
      <point x="5" y="311" type="line" smooth="yes"/>
      <point x="5" y="96"/>
      <point x="131" y="-35"/>
    </contour>
  </outline>
</glyph>
<glyph name="thorn" format="2">
  <advance width="1200"/>
  <unicode hex="00FE"/>
  <outline>
    <contour>
      <point x="108" y="-406" type="line"/>
      <point x="450" y="-406" type="line"/>
      <point x="450" y="143" type="line"/>
      <point x="460" y="143" type="line"/>
      <point x="530" y="23"/>
      <point x="625" y="-35"/>
      <point x="748" y="-35" type="curve" smooth="yes"/>
      <point x="972" y="-35"/>
      <point x="1120" y="186"/>
      <point x="1120" y="522" type="curve" smooth="yes"/>
      <point x="1120" y="532" type="line" smooth="yes"/>
      <point x="1120" y="868"/>
      <point x="972" y="1089"/>
      <point x="749" y="1089" type="curve" smooth="yes"/>
      <point x="626" y="1089"/>
      <point x="521" y="1021"/>
      <point x="460" y="903" type="curve"/>
      <point x="450" y="903" type="line"/>
      <point x="450" y="1460" type="line"/>
      <point x="108" y="1460" type="line"/>
    </contour>
    <contour>
      <point x="613" y="244" type="curve" smooth="yes"/>
      <point x="508" y="244"/>
      <point x="440" y="353"/>
      <point x="440" y="522" type="curve" smooth="yes"/>
      <point x="440" y="533" type="line" smooth="yes"/>
      <point x="440" y="702"/>
      <point x="508" y="810"/>
      <point x="614" y="810" type="curve" smooth="yes"/>
      <point x="720" y="810"/>
      <point x="778" y="714"/>
      <point x="778" y="539" type="curve" smooth="yes"/>
      <point x="778" y="515" type="line" smooth="yes"/>
      <point x="778" y="340"/>
      <point x="719" y="244"/>
    </contour>
  </outline>
</glyph>
<glyph name="aogonek" format="2">
  <advance width="1200"/>
  <unicode hex="0105"/>
  <anchor x="602" y="-35" name="bottom"/>
  <anchor x="1080" y="0" name="ogonek"/>
  <anchor x="613" y="1054" name="top"/>
  <outline>
    <contour>
      <point x="924" y="-552" type="curve" smooth="yes"/>
      <point x="1003" y="-552"/>
      <point x="1069" y="-534"/>
      <point x="1134" y="-496" type="curve"/>
      <point x="1070" y="-291" type="line"/>
      <point x="1043" y="-303"/>
      <point x="1020" y="-308"/>
      <point x="992" y="-308" type="curve" smooth="yes"/>
      <point x="930" y="-308"/>
      <point x="885" y="-270"/>
      <point x="885" y="-211" type="curve" smooth="yes"/>
      <point x="885" y="-131"/>
      <point x="942" y="-72"/>
      <point x="1080" y="0" type="curve"/>
      <point x="1012" y="120" type="line"/>
      <point x="746" y="25"/>
      <point x="627" y="-101"/>
      <point x="627" y="-267" type="curve" smooth="yes"/>
      <point x="627" y="-430"/>
      <point x="755" y="-552"/>
    </contour>
    <component base="a"/>
  </outline>
</glyph>
<glyph name="dcroat" format="2">
  <advance width="1200"/>
  <unicode hex="0111"/>
  <outline>
    <contour>
      <point x="451" y="-35" type="curve" smooth="yes"/>
      <point x="572" y="-35"/>
      <point x="673" y="34"/>
      <point x="730" y="151" type="curve"/>
      <point x="740" y="151" type="line"/>
      <point x="740" y="0" type="line"/>
      <point x="1053" y="0" type="line"/>
      <point x="1053" y="1515" type="line"/>
      <point x="741" y="1515" type="line"/>
      <point x="741" y="809" type="line"/>
      <point x="731" y="809" type="line"/>
      <point x="668" y="936"/>
      <point x="578" y="1001"/>
      <point x="443" y="1001" type="curve" smooth="yes"/>
      <point x="220" y="1001"/>
      <point x="60" y="783"/>
      <point x="60" y="487" type="curve" smooth="yes"/>
      <point x="60" y="479" type="line" smooth="yes"/>
      <point x="60" y="183"/>
      <point x="229" y="-35"/>
    </contour>
    <contour>
      <point x="567" y="245" type="curve" smooth="yes"/>
      <point x="455" y="245"/>
      <point x="389" y="337"/>
      <point x="389" y="482" type="curve" smooth="yes"/>
      <point x="389" y="504" type="line" smooth="yes"/>
      <point x="389" y="649"/>
      <point x="455" y="741"/>
      <point x="567" y="741" type="curve" smooth="yes"/>
      <point x="673" y="741"/>
      <point x="741" y="639"/>
      <point x="741" y="498" type="curve" smooth="yes"/>
      <point x="741" y="487" type="line" smooth="yes"/>
      <point x="741" y="345"/>
      <point x="673" y="245"/>
    </contour>
    <contour>
      <point x="413" y="1129" type="line"/>
      <point x="1223" y="1129" type="line"/>
      <point x="1223" y="1355" type="line"/>
      <point x="413" y="1355" type="line"/>
    </contour>
  </outline>
</glyph>
<glyph name="eogonek" format="2">
  <advance width="1200"/>
  <unicode hex="0119"/>
  <outline>
    <contour>
      <point x="756" y="-552" type="curve" smooth="yes"/>
      <point x="841" y="-552"/>
      <point x="911" y="-532"/>
      <point x="981" y="-492" type="curve"/>
      <point x="907" y="-284" type="line"/>
      <point x="874" y="-301"/>
      <point x="847" y="-308"/>
      <point x="813" y="-308" type="curve" smooth="yes"/>
      <point x="751" y="-308"/>
      <point x="706" y="-267"/>
      <point x="706" y="-207" type="curve" smooth="yes"/>
      <point x="706" y="-138"/>
      <point x="744" y="-86"/>
      <point x="863" y="-8" type="curve" smooth="yes"/>
      <point x="995" y="78"/>
      <point x="1068" y="163"/>
      <point x="1108" y="259" type="curve"/>
      <point x="814" y="371" type="line"/>
      <point x="777" y="280"/>
      <point x="714" y="236"/>
      <point x="621" y="236" type="curve" smooth="yes"/>
      <point x="481" y="236"/>
      <point x="398" y="344"/>
      <point x="398" y="521" type="curve" smooth="yes"/>
      <point x="398" y="530" type="line" smooth="yes"/>
      <point x="398" y="712"/>
      <point x="485" y="823"/>
      <point x="627" y="823" type="curve" smooth="yes"/>
      <point x="742" y="823"/>
      <point x="807" y="751"/>
      <point x="807" y="626" type="curve"/>
      <point x="817" y="636" type="line"/>
      <point x="246" y="636" type="line"/>
      <point x="246" y="449" type="line"/>
      <point x="1101" y="449" type="line"/>
      <point x="1111" y="486"/>
      <point x="1115" y="536"/>
      <point x="1115" y="595" type="curve" smooth="yes"/>
      <point x="1115" y="895"/>
      <point x="920" y="1089"/>
      <point x="624" y="1089" type="curve" smooth="yes"/>
      <point x="295" y="1089"/>
      <point x="74" y="867"/>
      <point x="74" y="534" type="curve" smooth="yes"/>
      <point x="74" y="517" type="line" smooth="yes"/>
      <point x="74" y="187"/>
      <point x="288" y="-27"/>
      <point x="622" y="-27" type="curve" smooth="yes"/>
      <point x="685" y="-27"/>
      <point x="744" y="-19"/>
      <point x="798" y="-3" type="curve"/>
      <point x="833" y="120" type="line"/>
      <point x="559" y="13"/>
      <point x="448" y="-109"/>
      <point x="448" y="-280" type="curve" smooth="yes"/>
      <point x="448" y="-436"/>
      <point x="580" y="-552"/>
    </contour>
  </outline>
</glyph>
<glyph name="Hbar" format="2">
  <advance width="1200"/>
  <unicode hex="0126"/>
  <outline>
    <contour>
      <point x="726" y="0" type="line"/>
      <point x="1054" y="0" type="line"/>
      <point x="1054" y="1432" type="line"/>
      <point x="726" y="1432" type="line"/>
    </contour>
    <contour>
      <point x="146" y="0" type="line"/>
      <point x="474" y="0" type="line"/>
      <point x="474" y="1432" type="line"/>
      <point x="146" y="1432" type="line"/>
    </contour>
    <contour>
      <point x="329" y="516" type="line"/>
      <point x="886" y="516" type="line"/>
      <point x="886" y="822" type="line"/>
      <point x="329" y="822" type="line"/>
    </contour>
    <contour>
      <point x="10" y="998" type="line"/>
      <point x="1190" y="998" type="line"/>
      <point x="1190" y="1264" type="line"/>
      <point x="10" y="1264" type="line"/>
    </contour>
  </outline>
</glyph>
<glyph name="hbar" format="2">
  <advance width="1200"/>
  <unicode hex="0127"/>
  <outline>
    <contour>
      <point x="150" y="0" type="line"/>
      <point x="493" y="0" type="line"/>
      <point x="493" y="540" type="line" smooth="yes"/>
      <point x="493" y="647"/>
      <point x="552" y="719"/>
      <point x="638" y="719" type="curve" smooth="yes"/>
      <point x="715" y="719"/>
      <point x="757" y="668"/>
      <point x="757" y="574" type="curve" smooth="yes"/>
      <point x="757" y="0" type="line"/>
      <point x="1100" y="0" type="line"/>
      <point x="1100" y="652" type="line" smooth="yes"/>
      <point x="1100" y="870"/>
      <point x="988" y="1001"/>
      <point x="803" y="1001" type="curve" smooth="yes"/>
      <point x="668" y="1001"/>
      <point x="556" y="937"/>
      <point x="473" y="814" type="curve"/>
      <point x="462" y="814" type="line"/>
      <point x="462" y="1515" type="line"/>
      <point x="150" y="1515" type="line"/>
    </contour>
    <contour>
      <point x="-20" y="1129" type="line"/>
      <point x="796" y="1129" type="line"/>
      <point x="796" y="1355" type="line"/>
      <point x="-20" y="1355" type="line"/>
    </contour>
  </outline>
</glyph>
<glyph name="idotless" format="2">
  <advance width="1200"/>
  <unicode hex="0131"/>
  <anchor x="807" y="0" name="ogonek"/>
  <anchor x="655" y="1054" name="top"/>
  <outline>
    <contour>
      <point x="487" y="83" type="line"/>
      <point x="823" y="83" type="line"/>
      <point x="823" y="1054" type="line"/>
      <point x="487" y="1054" type="line"/>
    </contour>
    <contour>
      <point x="155" y="0" type="line"/>
      <point x="1126" y="0" type="line"/>
      <point x="1126" y="250" type="line"/>
      <point x="155" y="250" type="line"/>
    </contour>
    <contour>
      <point x="175" y="804" type="line"/>
      <point x="787" y="804" type="line"/>
      <point x="787" y="1054" type="line"/>
      <point x="175" y="1054" type="line"/>
    </contour>
  </outline>
</glyph>
<glyph name="kgreenlandic" format="2">
  <advance width="1200"/>
  <unicode hex="0138"/>
  <outline>
    <contour>
      <point x="788" y="0" type="line"/>
      <point x="1162" y="0" type="line"/>
      <point x="742" y="626" type="line"/>
      <point x="742" y="512" type="line"/>
      <point x="1152" y="1054" type="line"/>
      <point x="774" y="1054" type="line"/>
      <point x="417" y="572" type="line"/>
      <point x="417" y="564" type="line"/>
    </contour>
    <contour>
      <point x="90" y="0" type="line"/>
      <point x="432" y="0" type="line"/>
      <point x="432" y="1054" type="line"/>
      <point x="90" y="1054" type="line"/>
    </contour>
  </outline>
</glyph>
<glyph name="Lcaron" format="2">
  <advance width="1200"/>
  <unicode hex="013D"/>
  <anchor x="634" y="0" name="bottom"/>
  <anchor x="322" y="1432" name="top"/>
  <outline>
    <contour>
      <point x="677" y="872" type="line"/>
      <point x="959" y="872" type="line"/>
      <point x="1070" y="1432" type="line"/>
      <point x="722" y="1432" type="line"/>
    </contour>
    <component base="L"/>
  </outline>
</glyph>
<glyph name="lcaron" format="2">
  <advance width="1200"/>
  <unicode hex="013E"/>
  <outline>
    <contour>
      <point x="774" y="-35" type="curve" smooth="yes"/>
      <point x="920" y="-35"/>
      <point x="1027" y="4"/>
      <point x="1125" y="93" type="curve"/>
      <point x="949" y="332" type="line"/>
      <point x="901" y="287"/>
      <point x="860" y="269"/>
      <point x="809" y="269" type="curve" smooth="yes"/>
      <point x="718" y="269"/>
      <point x="667" y="326"/>
      <point x="667" y="431" type="curve" smooth="yes"/>
      <point x="667" y="1460" type="line"/>
      <point x="323" y="1460" type="line"/>
      <point x="323" y="409" type="line" smooth="yes"/>
      <point x="323" y="130"/>
      <point x="490" y="-35"/>
    </contour>
    <contour>
      <point x="68" y="1200" type="line"/>
      <point x="594" y="1200" type="line"/>
      <point x="594" y="1460" type="line"/>
      <point x="68" y="1460" type="line"/>
    </contour>
    <contour>
      <point x="789" y="900" type="line"/>
      <point x="1041" y="900" type="line"/>
      <point x="1152" y="1460" type="line"/>
      <point x="834" y="1460" type="line"/>
    </contour>
  </outline>
</glyph>
<glyph name="Eng" format="2">
  <advance width="1200"/>
  <unicode hex="014A"/>
  <outline>
    <contour>
      <point x="693" y="-471" type="curve" smooth="yes"/>
      <point x="962" y="-471"/>
      <point x="1146" y="-277"/>
      <point x="1146" y="8" type="curve" smooth="yes"/>
      <point x="1146" y="1055" type="line" smooth="yes"/>
      <point x="1146" y="1306"/>
      <point x="1018" y="1467"/>
      <point x="801" y="1467" type="curve" smooth="yes"/>
      <point x="631" y="1467"/>
      <point x="513" y="1384"/>
      <point x="426" y="1236" type="curve"/>
      <point x="416" y="1236" type="line"/>
      <point x="416" y="1432" type="line"/>
      <point x="84" y="1432" type="line"/>
      <point x="84" y="0" type="line"/>
      <point x="432" y="0" type="line"/>
      <point x="432" y="896" type="line" smooth="yes"/>
      <point x="432" y="1040"/>
      <point x="515" y="1133"/>
      <point x="637" y="1133" type="curve" smooth="yes"/>
      <point x="744" y="1133"/>
      <point x="798" y="1063"/>
      <point x="798" y="937" type="curve" smooth="yes"/>
      <point x="798" y="2" type="line" smooth="yes"/>
      <point x="798" y="-85"/>
      <point x="751" y="-137"/>
      <point x="670" y="-137" type="curve" smooth="yes"/>
      <point x="612" y="-137"/>
      <point x="560" y="-116"/>
      <point x="505" y="-71" type="curve"/>
      <point x="320" y="-349" type="line"/>
      <point x="426" y="-430"/>
      <point x="551" y="-471"/>
    </contour>
  </outline>
</glyph>
<glyph name="tcaron" format="2">
  <advance width="1200"/>
  <unicode hex="0165"/>
  <outline>
    <contour>
      <point x="776" y="-35" type="curve" smooth="yes"/>
      <point x="913" y="-35"/>
      <point x="1030" y="5"/>
      <point x="1124" y="82" type="curve"/>
      <point x="966" y="333" type="line"/>
      <point x="914" y="287"/>
      <point x="869" y="269"/>
      <point x="814" y="269" type="curve" smooth="yes"/>
      <point x="712" y="269"/>
      <point x="662" y="331"/>
      <point x="662" y="455" type="curve" smooth="yes"/>
      <point x="662" y="1326" type="line"/>
      <point x="320" y="1326" type="line"/>
      <point x="320" y="433" type="line" smooth="yes"/>
      <point x="320" y="134"/>
      <point x="483" y="-35"/>
    </contour>
    <contour>
      <point x="84" y="762" type="line"/>
      <point x="1063" y="762" type="line"/>
      <point x="1063" y="1014" type="line"/>
      <point x="84" y="1014" type="line"/>
    </contour>
    <contour>
      <point x="782" y="1128" type="line"/>
      <point x="1018" y="1128" type="line"/>
      <point x="1108" y="1578" type="line"/>
      <point x="818" y="1578" type="line"/>
    </contour>
  </outline>
</glyph>
<glyph name="longs" format="2">
  <advance width="1200"/>
  <unicode hex="017F"/>
  <outline>
    <contour>
      <point x="322" y="0" type="line"/>
      <point x="666" y="0" type="line"/>
      <point x="666" y="1004" type="line" smooth="yes"/>
      <point x="666" y="1104"/>
      <point x="717" y="1160"/>
      <point x="802" y="1160" type="curve" smooth="yes"/>
      <point x="861" y="1160"/>
      <point x="903" y="1135"/>
      <point x="954" y="1080" type="curve"/>
      <point x="1166" y="1333" type="line"/>
      <point x="1064" y="1442"/>
      <point x="937" y="1494"/>
      <point x="774" y="1494" type="curve" smooth="yes"/>
      <point x="505" y="1494"/>
      <point x="322" y="1320"/>
      <point x="322" y="1053" type="curve" smooth="yes"/>
    </contour>
    <contour>
      <point x="96" y="804" type="line"/>
      <point x="498" y="804" type="line"/>
      <point x="498" y="1054" type="line"/>
      <point x="96" y="1054" type="line"/>
    </contour>
  </outline>
</glyph>
<glyph name="Dhook" format="2">
  <advance width="1200"/>
  <unicode hex="018A"/>
  <outline>
    <contour>
      <point x="444" y="0" type="line"/>
      <point x="691" y="0" type="line" smooth="yes"/>
      <point x="1009" y="0"/>
      <point x="1194" y="259"/>
      <point x="1194" y="653" type="curve" smooth="yes"/>
      <point x="1194" y="779" type="line" smooth="yes"/>
      <point x="1194" y="1173"/>
      <point x="1009" y="1432"/>
      <point x="691" y="1432" type="curve" smooth="yes"/>
      <point x="444" y="1432" type="line"/>
    </contour>
    <contour>
      <point x="54" y="802" type="curve"/>
      <point x="320" y="884" type="line"/>
      <point x="306" y="928"/>
      <point x="298" y="970"/>
      <point x="298" y="1017" type="curve" smooth="yes"/>
      <point x="298" y="1129"/>
      <point x="350" y="1190"/>
      <point x="439" y="1190" type="curve" smooth="yes"/>
      <point x="582" y="1190" type="line"/>
      <point x="582" y="1432" type="line"/>
      <point x="435" y="1432" type="line" smooth="yes"/>
      <point x="179" y="1432"/>
      <point x="4" y="1275"/>
      <point x="4" y="1035" type="curve" smooth="yes"/>
      <point x="4" y="963"/>
      <point x="21" y="878"/>
    </contour>
    <contour>
      <point x="714" y="290" type="line"/>
      <point x="714" y="1142" type="line"/>
      <point x="745" y="1142" type="line" smooth="yes"/>
      <point x="851" y="1142"/>
      <point x="908" y="1034"/>
      <point x="908" y="784" type="curve" smooth="yes"/>
      <point x="908" y="648" type="line" smooth="yes"/>
      <point x="908" y="398"/>
      <point x="852" y="290"/>
      <point x="745" y="290" type="curve" smooth="yes"/>
    </contour>
  </outline>
</glyph>
<glyph name="Schwa" format="2">
  <advance width="1200"/>
  <unicode hex="018F"/>
  <outline>
    <contour>
      <point x="616" y="-35" type="curve" smooth="yes"/>
      <point x="959" y="-35"/>
      <point x="1168" y="242"/>
      <point x="1168" y="697" type="curve" smooth="yes"/>
      <point x="1168" y="746" type="line" smooth="yes"/>
      <point x="1168" y="1225"/>
      <point x="988" y="1467"/>
      <point x="630" y="1467" type="curve" smooth="yes"/>
      <point x="413" y="1467"/>
      <point x="227" y="1379"/>
      <point x="83" y="1208" type="curve"/>
      <point x="323" y="996" type="line"/>
      <point x="414" y="1095"/>
      <point x="505" y="1141"/>
      <point x="612" y="1141" type="curve" smooth="yes"/>
      <point x="771" y="1141"/>
      <point x="838" y="1032"/>
      <point x="838" y="773" type="curve" smooth="yes"/>
      <point x="838" y="686" type="line" smooth="yes"/>
      <point x="838" y="411"/>
      <point x="767" y="285"/>
      <point x="612" y="285" type="curve" smooth="yes"/>
      <point x="460" y="285"/>
      <point x="379" y="393"/>
      <point x="379" y="595" type="curve"/>
      <point x="376" y="550" type="line"/>
      <point x="977" y="550" type="line"/>
      <point x="977" y="810" type="line"/>
      <point x="72" y="810" type="line"/>
      <point x="64" y="761"/>
      <point x="60" y="707"/>
      <point x="60" y="644" type="curve" smooth="yes"/>
      <point x="60" y="219"/>
      <point x="268" y="-35"/>
    </contour>
  </outline>
</glyph>
<glyph name="Khook" format="2">
  <advance width="1200"/>
  <unicode hex="0198"/>
  <outline>
    <contour>
      <point x="768" y="0" type="line"/>
      <point x="1162" y="0" type="line"/>
      <point x="726" y="819" type="line"/>
      <point x="726" y="759" type="line"/>
      <point x="853" y="987" type="line" smooth="yes"/>
      <point x="913" y="1094"/>
      <point x="960" y="1137"/>
      <point x="1023" y="1137" type="curve" smooth="yes"/>
      <point x="1054" y="1137"/>
      <point x="1073" y="1130"/>
      <point x="1095" y="1116" type="curve"/>
      <point x="1222" y="1410" type="line"/>
      <point x="1155" y="1448"/>
      <point x="1092" y="1467"/>
      <point x="999" y="1467" type="curve" smooth="yes"/>
      <point x="795" y="1467"/>
      <point x="676" y="1361"/>
      <point x="569" y="1131" type="curve" smooth="yes"/>
      <point x="391" y="748" type="line"/>
      <point x="391" y="739" type="line"/>
    </contour>
    <contour>
      <point x="52" y="0" type="line"/>
      <point x="400" y="0" type="line"/>
      <point x="400" y="1432" type="line"/>
      <point x="52" y="1432" type="line"/>
    </contour>
  </outline>
</glyph>
<glyph name="khook" format="2">
  <advance width="1200"/>
  <unicode hex="0199"/>
  <outline>
    <contour>
      <point x="90" y="0" type="line"/>
      <point x="432" y="0" type="line"/>
      <point x="432" y="1001" type="line" smooth="yes"/>
      <point x="432" y="1165"/>
      <point x="494" y="1249"/>
      <point x="618" y="1249" type="curve" smooth="yes"/>
      <point x="667" y="1249"/>
      <point x="701" y="1242"/>
      <point x="746" y="1223" type="curve"/>
      <point x="852" y="1508" type="line"/>
      <point x="768" y="1542"/>
      <point x="683" y="1559"/>
      <point x="593" y="1559" type="curve" smooth="yes"/>
      <point x="287" y="1559"/>
      <point x="90" y="1359"/>
      <point x="90" y="1019" type="curve" smooth="yes"/>
    </contour>
    <contour>
      <point x="788" y="0" type="line"/>
      <point x="1162" y="0" type="line"/>
      <point x="742" y="626" type="line"/>
      <point x="742" y="512" type="line"/>
      <point x="1152" y="1054" type="line"/>
      <point x="774" y="1054" type="line"/>
      <point x="417" y="572" type="line"/>
      <point x="417" y="564" type="line"/>
    </contour>
  </outline>
</glyph>
<glyph name="Ohorn" format="2">
  <advance width="1200"/>
  <unicode hex="01A0"/>
  <anchor x="595" y="-35" name="bottom"/>
  <outline>
    <contour>
      <point x="595" y="-35" type="curve" smooth="yes"/>
      <point x="936" y="-35"/>
      <point x="1140" y="237"/>
      <point x="1140" y="693" type="curve" smooth="yes"/>
      <point x="1140" y="739" type="line" smooth="yes"/>
      <point x="1140" y="1096"/>
      <point x="1025" y="1296"/>
      <point x="778" y="1407" type="curve"/>
      <point x="745" y="1305" type="line"/>
      <point x="826" y="1305" type="line" smooth="yes"/>
      <point x="1059" y="1305"/>
      <point x="1204" y="1416"/>
      <point x="1204" y="1596" type="curve" smooth="yes"/>
      <point x="1204" y="1693"/>
      <point x="1170" y="1785"/>
      <point x="1100" y="1873" type="curve"/>
      <point x="842" y="1709" type="line"/>
      <point x="888" y="1651"/>
      <point x="904" y="1612"/>
      <point x="904" y="1563" type="curve" smooth="yes"/>
      <point x="904" y="1493"/>
      <point x="858" y="1453"/>
      <point x="779" y="1453" type="curve" smooth="yes"/>
      <point x="723" y="1453"/>
      <point x="676" y="1467"/>
      <point x="608" y="1467" type="curve" smooth="yes"/>
      <point x="254" y="1467"/>
      <point x="50" y="1195"/>
      <point x="50" y="739" type="curve" smooth="yes"/>
      <point x="50" y="693" type="line" smooth="yes"/>
      <point x="50" y="237"/>
      <point x="254" y="-35"/>
    </contour>
    <contour>
      <point x="595" y="299" type="curve" smooth="yes"/>
      <point x="466" y="299"/>
      <point x="400" y="431"/>
      <point x="400" y="688" type="curve" smooth="yes"/>
      <point x="400" y="744" type="line" smooth="yes"/>
      <point x="400" y="1009"/>
      <point x="470" y="1145"/>
      <point x="608" y="1145" type="curve" smooth="yes"/>
      <point x="735" y="1145"/>
      <point x="790" y="1015"/>
      <point x="790" y="764" type="curve" smooth="yes"/>
      <point x="790" y="688" type="line" smooth="yes"/>
      <point x="790" y="431"/>
      <point x="724" y="299"/>
    </contour>
  </outline>
</glyph>
<glyph name="ohorn" format="2">
  <advance width="1200"/>
  <unicode hex="01A1"/>
  <anchor x="590" y="-35" name="bottom"/>
  <outline>
    <contour>
      <point x="590" y="-35" type="curve" smooth="yes"/>
      <point x="910" y="-35"/>
      <point x="1114" y="180"/>
      <point x="1114" y="517" type="curve" smooth="yes"/>
      <point x="1114" y="537" type="line" smooth="yes"/>
      <point x="1114" y="784"/>
      <point x="993" y="962"/>
      <point x="776" y="1034" type="curve"/>
      <point x="748" y="931" type="line"/>
      <point x="832" y="931" type="line" smooth="yes"/>
      <point x="1061" y="931"/>
      <point x="1204" y="1042"/>
      <point x="1204" y="1219" type="curve" smooth="yes"/>
      <point x="1204" y="1305"/>
      <point x="1178" y="1384"/>
      <point x="1122" y="1466" type="curve"/>
      <point x="852" y="1323" type="line"/>
      <point x="890" y="1262"/>
      <point x="904" y="1224"/>
      <point x="904" y="1178" type="curve" smooth="yes"/>
      <point x="904" y="1111"/>
      <point x="861" y="1073"/>
      <point x="784" y="1073" type="curve" smooth="yes"/>
      <point x="731" y="1073"/>
      <point x="672" y="1089"/>
      <point x="590" y="1089" type="curve" smooth="yes"/>
      <point x="264" y="1089"/>
      <point x="66" y="867"/>
      <point x="66" y="537" type="curve" smooth="yes"/>
      <point x="66" y="517" type="line" smooth="yes"/>
      <point x="66" y="187"/>
      <point x="264" y="-35"/>
    </contour>
    <contour>
      <point x="590" y="263" type="curve" smooth="yes"/>
      <point x="470" y="263"/>
      <point x="404" y="359"/>
      <point x="404" y="521" type="curve" smooth="yes"/>
      <point x="404" y="533" type="line" smooth="yes"/>
      <point x="404" y="699"/>
      <point x="470" y="797"/>
      <point x="590" y="797" type="curve" smooth="yes"/>
      <point x="710" y="797"/>
      <point x="776" y="699"/>
      <point x="776" y="533" type="curve" smooth="yes"/>
      <point x="776" y="521" type="line" smooth="yes"/>
      <point x="776" y="359"/>
      <point x="710" y="263"/>
    </contour>
  </outline>
</glyph>
<glyph name="LJ" format="2">
  <advance width="1200"/>
  <unicode hex="01C7"/>
  <outline>
    <contour>
      <point x="823" y="-35" type="curve" smooth="yes"/>
      <point x="1053" y="-35"/>
      <point x="1196" y="125"/>
      <point x="1196" y="357" type="curve" smooth="yes"/>
      <point x="1196" y="1432" type="line"/>
      <point x="868" y="1432" type="line"/>
      <point x="868" y="385" type="line" smooth="yes"/>
      <point x="868" y="317"/>
      <point x="834" y="277"/>
      <point x="777" y="277" type="curve" smooth="yes"/>
      <point x="742" y="277"/>
      <point x="712" y="286"/>
      <point x="684" y="305" type="curve"/>
      <point x="564" y="21" type="line"/>
      <point x="642" y="-16"/>
      <point x="727" y="-35"/>
    </contour>
    <contour>
      <point x="6" y="0" type="line"/>
      <point x="538" y="0" type="line"/>
      <point x="538" y="308" type="line"/>
      <point x="334" y="308" type="line"/>
      <point x="334" y="1432" type="line"/>
      <point x="6" y="1432" type="line"/>
    </contour>
  </outline>
</glyph>
<glyph name="Nj" format="2">
  <advance width="1200"/>
  <unicode hex="01CB"/>
  <outline>
    <contour>
      <point x="6" y="0" type="line"/>
      <point x="242" y="0" type="line"/>
      <point x="242" y="417" type="line"/>
      <point x="195" y="1116" type="line"/>
      <point x="214" y="1116" type="line"/>
      <point x="438" y="0" type="line"/>
      <point x="740" y="0" type="line"/>
      <point x="740" y="1432" type="line"/>
      <point x="504" y="1432" type="line"/>
      <point x="504" y="1125" type="line"/>
      <point x="551" y="459" type="line"/>
      <point x="532" y="459" type="line"/>
      <point x="336" y="1432" type="line"/>
      <point x="6" y="1432" type="line"/>
    </contour>
    <contour>
      <point x="818" y="-451" type="curve" smooth="yes"/>
      <point x="1044" y="-451"/>
      <point x="1188" y="-298"/>
      <point x="1188" y="-56" type="curve" smooth="yes"/>
      <point x="1188" y="1054" type="line"/>
      <point x="898" y="1054" type="line"/>
      <point x="898" y="-54" type="line" smooth="yes"/>
      <point x="898" y="-146"/>
      <point x="861" y="-191"/>
      <point x="785" y="-191" type="curve" smooth="yes"/>
      <point x="730" y="-191"/>
      <point x="688" y="-173"/>
      <point x="632" y="-125" type="curve"/>
      <point x="484" y="-324" type="line"/>
      <point x="586" y="-410"/>
      <point x="692" y="-451"/>
    </contour>
    <contour>
      <point x="1043" y="1236" type="curve" smooth="yes"/>
      <point x="1156" y="1236"/>
      <point x="1235" y="1321"/>
      <point x="1235" y="1443" type="curve" smooth="yes"/>
      <point x="1235" y="1566"/>
      <point x="1157" y="1650"/>
      <point x="1043" y="1650" type="curve" smooth="yes"/>
      <point x="929" y="1650"/>
      <point x="851" y="1566"/>
      <point x="851" y="1443" type="curve" smooth="yes"/>
      <point x="851" y="1321"/>
      <point x="930" y="1236"/>
    </contour>
  </outline>
</glyph>
<glyph name="nj" format="2">
  <advance width="1200"/>
  <unicode hex="01CC"/>
  <outline>
    <contour>
      <point x="759" y="-451" type="curve" smooth="yes"/>
      <point x="1022" y="-451"/>
      <point x="1180" y="-289"/>
      <point x="1180" y="-21" type="curve" smooth="yes"/>
      <point x="1180" y="1054" type="line"/>
      <point x="888" y="1054" type="line"/>
      <point x="888" y="-19" type="line" smooth="yes"/>
      <point x="888" y="-131"/>
      <point x="831" y="-189"/>
      <point x="733" y="-189" type="curve" smooth="yes"/>
      <point x="674" y="-189"/>
      <point x="621" y="-168"/>
      <point x="559" y="-121" type="curve"/>
      <point x="411" y="-329" type="line"/>
      <point x="514" y="-412"/>
      <point x="632" y="-451"/>
    </contour>
    <contour>
      <point x="24" y="0" type="line"/>
      <point x="316" y="0" type="line"/>
      <point x="316" y="671" type="line" smooth="yes"/>
      <point x="316" y="774"/>
      <point x="361" y="833"/>
      <point x="421" y="833" type="curve" smooth="yes"/>
      <point x="471" y="833"/>
      <point x="490" y="798"/>
      <point x="490" y="725" type="curve" smooth="yes"/>
      <point x="490" y="0" type="line"/>
      <point x="782" y="0" type="line"/>
      <point x="782" y="782" type="line" smooth="yes"/>
      <point x="782" y="981"/>
      <point x="705" y="1089"/>
      <point x="563" y="1089" type="curve" smooth="yes"/>
      <point x="447" y="1089"/>
      <point x="363" y="1023"/>
      <point x="298" y="891" type="curve"/>
      <point x="289" y="891" type="line"/>
      <point x="289" y="1054" type="line"/>
      <point x="24" y="1054" type="line"/>
    </contour>
    <contour>
      <point x="1034" y="1236" type="curve" smooth="yes"/>
      <point x="1147" y="1236"/>
      <point x="1226" y="1326"/>
      <point x="1226" y="1443" type="curve" smooth="yes"/>
      <point x="1226" y="1560"/>
      <point x="1147" y="1650"/>
      <point x="1034" y="1650" type="curve" smooth="yes"/>
      <point x="921" y="1650"/>
      <point x="842" y="1560"/>
      <point x="842" y="1443" type="curve" smooth="yes"/>
      <point x="842" y="1326"/>
      <point x="921" y="1236"/>
    </contour>
  </outline>
</glyph>
<glyph name="bhook" format="2">
  <advance width="1200"/>
  <unicode hex="0253"/>
  <outline>
    <contour>
      <point x="745" y="-35" type="curve" smooth="yes"/>
      <point x="968" y="-35"/>
      <point x="1120" y="180"/>
      <point x="1120" y="504" type="curve" smooth="yes"/>
      <point x="1120" y="515" type="line" smooth="yes"/>
      <point x="1120" y="839"/>
      <point x="978" y="1054"/>
      <point x="757" y="1054" type="curve" smooth="yes"/>
      <point x="630" y="1054"/>
      <point x="526" y="990"/>
      <point x="460" y="876" type="curve"/>
      <point x="450" y="876" type="line"/>
      <point x="450" y="1011" type="line" smooth="yes"/>
      <point x="450" y="1171"/>
      <point x="520" y="1249"/>
      <point x="646" y="1249" type="curve" smooth="yes"/>
      <point x="703" y="1249"/>
      <point x="742" y="1240"/>
      <point x="788" y="1218" type="curve"/>
      <point x="894" y="1503" type="line"/>
      <point x="811" y="1542"/>
      <point x="729" y="1559"/>
      <point x="622" y="1559" type="curve" smooth="yes"/>
      <point x="303" y="1559"/>
      <point x="108" y="1359"/>
      <point x="108" y="1027" type="curve" smooth="yes"/>
      <point x="108" y="0" type="line"/>
      <point x="441" y="0" type="line"/>
      <point x="441" y="151" type="line"/>
      <point x="451" y="151" type="line"/>
      <point x="512" y="34"/>
      <point x="620" y="-35"/>
    </contour>
    <contour>
      <point x="614" y="244" type="curve" smooth="yes"/>
      <point x="508" y="244"/>
      <point x="440" y="345"/>
      <point x="440" y="504" type="curve" smooth="yes"/>
      <point x="440" y="515" type="line" smooth="yes"/>
      <point x="440" y="673"/>
      <point x="508" y="775"/>
      <point x="613" y="775" type="curve" smooth="yes"/>
      <point x="719" y="775"/>
      <point x="778" y="685"/>
      <point x="778" y="522" type="curve" smooth="yes"/>
      <point x="778" y="497" type="line" smooth="yes"/>
      <point x="778" y="334"/>
      <point x="720" y="244"/>
    </contour>
  </outline>
</glyph>
<glyph name="schwa" format="2">
  <advance width="1200"/>
  <unicode hex="0259"/>
  <outline>
    <contour>
      <point x="595" y="-35" type="curve" smooth="yes"/>
      <point x="914" y="-35"/>
      <point x="1130" y="192"/>
      <point x="1130" y="530" type="curve" smooth="yes"/>
      <point x="1130" y="547" type="line" smooth="yes"/>
      <point x="1130" y="877"/>
      <point x="940" y="1089"/>
      <point x="606" y="1089" type="curve" smooth="yes"/>
      <point x="426" y="1089"/>
      <point x="265" y="1033"/>
      <point x="118" y="929" type="curve"/>
      <point x="262" y="705" type="line"/>
      <point x="380" y="784"/>
      <point x="475" y="819"/>
      <point x="576" y="819" type="curve" smooth="yes"/>
      <point x="737" y="819"/>
      <point x="809" y="729"/>
      <point x="809" y="572" type="curve" smooth="yes"/>
      <point x="809" y="505" type="line" smooth="yes"/>
      <point x="809" y="326"/>
      <point x="733" y="231"/>
      <point x="595" y="231" type="curve" smooth="yes"/>
      <point x="474" y="231"/>
      <point x="397" y="310"/>
      <point x="397" y="420" type="curve"/>
      <point x="397" y="410" type="line"/>
      <point x="958" y="410" type="line"/>
      <point x="958" y="596" type="line"/>
      <point x="100" y="596" type="line"/>
      <point x="94" y="564"/>
      <point x="90" y="522"/>
      <point x="90" y="477" type="curve" smooth="yes"/>
      <point x="90" y="173"/>
      <point x="293" y="-35"/>
    </contour>
  </outline>
</glyph>
<glyph name="circumflexcomb" format="2">
  <unicode hex="0302"/>
  <anchor x="0" y="1054" name="_top"/>
  <outline>
    <contour>
      <point x="-460" y="1260" type="line"/>
      <point x="-130" y="1260" type="line"/>
      <point x="36" y="1559" type="line"/>
      <point x="-36" y="1559" type="line"/>
      <point x="130" y="1260" type="line"/>
      <point x="460" y="1260" type="line"/>
      <point x="460" y="1274" type="line"/>
      <point x="164" y="1644" type="line"/>
      <point x="-164" y="1644" type="line"/>
      <point x="-460" y="1274" type="line"/>
    </contour>
  </outline>
</glyph>
<glyph name="tildecomb" format="2">
  <unicode hex="0303"/>
  <anchor x="0" y="1054" name="_top"/>
  <outline>
    <contour>
      <point x="179" y="1257" type="curve" smooth="yes"/>
      <point x="332" y="1257"/>
      <point x="407" y="1361"/>
      <point x="407" y="1556" type="curve" smooth="yes"/>
      <point x="407" y="1644" type="line"/>
      <point x="169" y="1644" type="line"/>
      <point x="169" y="1564" type="line" smooth="yes"/>
      <point x="169" y="1522"/>
      <point x="152" y="1500"/>
      <point x="119" y="1500" type="curve" smooth="yes"/>
      <point x="90" y="1500"/>
      <point x="61" y="1521"/>
      <point x="12" y="1566" type="curve" smooth="yes"/>
      <point x="-51" y="1624"/>
      <point x="-106" y="1647"/>
      <point x="-168" y="1647" type="curve" smooth="yes"/>
      <point x="-323" y="1647"/>
      <point x="-407" y="1542"/>
      <point x="-407" y="1349" type="curve" smooth="yes"/>
      <point x="-407" y="1260" type="line"/>
      <point x="-169" y="1260" type="line"/>
      <point x="-169" y="1340" type="line" smooth="yes"/>
      <point x="-169" y="1382"/>
      <point x="-151" y="1404"/>
      <point x="-116" y="1404" type="curve" smooth="yes"/>
      <point x="-88" y="1404"/>
      <point x="-62" y="1384"/>
      <point x="-12" y="1340" type="curve" smooth="yes"/>
      <point x="52" y="1284"/>
      <point x="116" y="1257"/>
    </contour>
  </outline>
</glyph>
<glyph name="brevecomb" format="2">
  <unicode hex="0306"/>
  <anchor x="0" y="1054" name="_top"/>
  <outline>
    <contour>
      <point x="0" y="1246" type="curve" smooth="yes"/>
      <point x="239" y="1246"/>
      <point x="398" y="1401"/>
      <point x="398" y="1632" type="curve" smooth="yes"/>
      <point x="398" y="1644" type="line"/>
      <point x="152" y="1644" type="line"/>
      <point x="152" y="1626" type="line" smooth="yes"/>
      <point x="152" y="1528"/>
      <point x="95" y="1470"/>
      <point x="0" y="1470" type="curve" smooth="yes"/>
      <point x="-95" y="1470"/>
      <point x="-152" y="1528"/>
      <point x="-152" y="1626" type="curve" smooth="yes"/>
      <point x="-152" y="1644" type="line"/>
      <point x="-398" y="1644" type="line"/>
      <point x="-398" y="1632" type="line" smooth="yes"/>
      <point x="-398" y="1401"/>
      <point x="-239" y="1246"/>
    </contour>
  </outline>
</glyph>
<glyph name="commaaccentcomb" format="2">
  <unicode hex="0326"/>
  <anchor x="-1" y="0" name="_bottom"/>
  <outline>
    <contour>
      <point x="-80" y="-891" type="line"/>
      <point x="87" y="-647" type="line" smooth="yes"/>
      <point x="167" y="-530"/>
      <point x="198" y="-451"/>
      <point x="198" y="-366" type="curve" smooth="yes"/>
      <point x="198" y="-235"/>
      <point x="111" y="-146"/>
      <point x="-17" y="-146" type="curve" smooth="yes"/>
      <point x="-137" y="-146"/>
      <point x="-224" y="-228"/>
      <point x="-224" y="-341" type="curve" smooth="yes"/>
      <point x="-224" y="-448"/>
      <point x="-143" y="-529"/>
      <point x="-29" y="-536" type="curve"/>
      <point x="-21" y="-439" type="line"/>
      <point x="-264" y="-761" type="line"/>
    </contour>
  </outline>
</glyph>
<glyph name="ogonekcomb" format="2">
  <unicode hex="0328"/>
  <anchor x="81" y="-14" name="_ogonek"/>
  <outline>
    <contour>
      <point x="-75" y="-566" type="curve" smooth="yes"/>
      <point x="4" y="-566"/>
      <point x="70" y="-548"/>
      <point x="135" y="-510" type="curve"/>
      <point x="71" y="-305" type="line"/>
      <point x="44" y="-317"/>
      <point x="21" y="-322"/>
      <point x="-7" y="-322" type="curve" smooth="yes"/>
      <point x="-69" y="-322"/>
      <point x="-114" y="-284"/>
      <point x="-114" y="-225" type="curve" smooth="yes"/>
      <point x="-114" y="-145"/>
      <point x="-57" y="-86"/>
      <point x="81" y="-14" type="curve"/>
      <point x="13" y="106" type="line"/>
      <point x="-253" y="11"/>
      <point x="-372" y="-115"/>
      <point x="-372" y="-281" type="curve" smooth="yes"/>
      <point x="-372" y="-444"/>
      <point x="-244" y="-566"/>
    </contour>
  </outline>
</glyph>
<glyph name="Germandbls" format="2">
  <advance width="1200"/>
  <unicode hex="1E9E"/>
  <outline>
    <contour>
      <point x="777" y="-35" type="curve" smooth="yes"/>
      <point x="1029" y="-35"/>
      <point x="1190" y="138"/>
      <point x="1190" y="408" type="curve" smooth="yes"/>
      <point x="1190" y="429" type="line" smooth="yes"/>
      <point x="1190" y="695"/>
      <point x="1041" y="850"/>
      <point x="786" y="850" type="curve"/>
      <point x="881" y="801" type="line"/>
      <point x="881" y="852" type="line"/>
      <point x="1065" y="1262" type="line"/>
      <point x="1065" y="1432" type="line"/>
      <point x="602" y="1432" type="line" smooth="yes"/>
      <point x="248" y="1432"/>
      <point x="70" y="1261"/>
      <point x="70" y="922" type="curve" smooth="yes"/>
      <point x="70" y="0" type="line"/>
      <point x="412" y="0" type="line"/>
      <point x="412" y="912" type="line" smooth="yes"/>
      <point x="412" y="1048"/>
      <point x="476" y="1118"/>
      <point x="602" y="1118" type="curve" smooth="yes"/>
      <point x="682" y="1118" type="line"/>
      <point x="682" y="1110" type="line"/>
      <point x="544" y="803" type="line"/>
      <point x="544" y="633" type="line"/>
      <point x="637" y="633" type="line" smooth="yes"/>
      <point x="781" y="633"/>
      <point x="845" y="578"/>
      <point x="845" y="456" type="curve" smooth="yes"/>
      <point x="845" y="440" type="line" smooth="yes"/>
      <point x="845" y="337"/>
      <point x="796" y="279"/>
      <point x="711" y="279" type="curve" smooth="yes"/>
      <point x="672" y="279"/>
      <point x="633" y="289"/>
      <point x="597" y="308" type="curve"/>
      <point x="477" y="22" type="line"/>
      <point x="559" y="-14"/>
      <point x="668" y="-35"/>
    </contour>
  </outline>
</glyph>
<glyph name="emdash" format="2">
  <advance width="1200"/>
  <unicode hex="2014"/>
  <outline>
    <contour>
      <point x="42" y="475" type="line"/>
      <point x="1158" y="475" type="line"/>
      <point x="1158" y="815" type="line"/>
      <point x="42" y="815" type="line"/>
    </contour>
  </outline>
</glyph>
<glyph name="bullet" format="2">
  <advance width="1200"/>
  <unicode hex="2022"/>
  <outline>
    <contour>
      <point x="560" y="367" type="curve" smooth="yes"/>
      <point x="730" y="367"/>
      <point x="860" y="497"/>
      <point x="860" y="667" type="curve" smooth="yes"/>
      <point x="860" y="837"/>
      <point x="730" y="967"/>
      <point x="560" y="967" type="curve" smooth="yes"/>
      <point x="390" y="967"/>
      <point x="260" y="837"/>
      <point x="260" y="667" type="curve" smooth="yes"/>
      <point x="260" y="497"/>
      <point x="390" y="367"/>
    </contour>
  </outline>
</glyph>
<glyph name="ellipsis" format="2">
  <advance width="1200"/>
  <unicode hex="2026"/>
  <outline>
    <contour>
      <point x="199" y="-35" type="curve" smooth="yes"/>
      <point x="277" y="-35"/>
      <point x="336" y="31"/>
      <point x="336" y="119" type="curve" smooth="yes"/>
      <point x="336" y="206"/>
      <point x="278" y="271"/>
      <point x="199" y="271" type="curve" smooth="yes"/>
      <point x="120" y="271"/>
      <point x="62" y="206"/>
      <point x="62" y="119" type="curve" smooth="yes"/>
      <point x="62" y="31"/>
      <point x="121" y="-35"/>
    </contour>
    <contour>
      <point x="1001" y="-35" type="curve" smooth="yes"/>
      <point x="1079" y="-35"/>
      <point x="1138" y="31"/>
      <point x="1138" y="119" type="curve" smooth="yes"/>
      <point x="1138" y="206"/>
      <point x="1080" y="271"/>
      <point x="1001" y="271" type="curve" smooth="yes"/>
      <point x="922" y="271"/>
      <point x="864" y="206"/>
      <point x="864" y="119" type="curve" smooth="yes"/>
      <point x="864" y="31"/>
      <point x="923" y="-35"/>
    </contour>
    <contour>
      <point x="600" y="-35" type="curve" smooth="yes"/>
      <point x="678" y="-35"/>
      <point x="737" y="31"/>
      <point x="737" y="119" type="curve" smooth="yes"/>
      <point x="737" y="206"/>
      <point x="679" y="271"/>
      <point x="600" y="271" type="curve" smooth="yes"/>
      <point x="521" y="271"/>
      <point x="463" y="206"/>
      <point x="463" y="119" type="curve" smooth="yes"/>
      <point x="463" y="31"/>
      <point x="522" y="-35"/>
    </contour>
  </outline>
</glyph>
<glyph name="minute" format="2">
  <advance width="1200"/>
  <unicode hex="2032"/>
  <outline>
    <contour>
      <point x="282" y="837" type="line"/>
      <point x="588" y="837" type="line"/>
      <point x="750" y="1460" type="line"/>
      <point x="378" y="1460" type="line"/>
    </contour>
  </outline>
</glyph>
<glyph name="fraction" format="2">
  <advance width="1200"/>
  <unicode hex="2044"/>
  <outline>
    <contour>
      <point x="92" y="-35" type="line"/>
      <point x="275" y="-35" type="line"/>
      <point x="1108" y="1460" type="line"/>
      <point x="925" y="1460" type="line"/>
    </contour>
  </outline>
</glyph>
<glyph name="dong" format="2">
  <advance width="1200"/>
  <unicode hex="20AB"/>
  <outline>
    <contour>
      <point x="441" y="214" type="curve" smooth="yes"/>
      <point x="580" y="214"/>
      <point x="679" y="283"/>
      <point x="740" y="398" type="curve"/>
      <point x="750" y="398" type="line"/>
      <point x="750" y="214" type="line"/>
      <point x="1043" y="214" type="line"/>
      <point x="1043" y="1555" type="line"/>
      <point x="741" y="1555" type="line"/>
      <point x="741" y="923" type="line"/>
      <point x="731" y="923" type="line"/>
      <point x="667" y="1028"/>
      <point x="571" y="1081"/>
      <point x="433" y="1081" type="curve" smooth="yes"/>
      <point x="206" y="1081"/>
      <point x="40" y="896"/>
      <point x="40" y="648" type="curve" smooth="yes"/>
      <point x="40" y="646" type="line" smooth="yes"/>
      <point x="40" y="398"/>
      <point x="215" y="214"/>
    </contour>
    <contour>
      <point x="60" y="-200" type="line"/>
      <point x="1123" y="-200" type="line"/>
      <point x="1123" y="90" type="line"/>
      <point x="60" y="90" type="line"/>
    </contour>
    <contour>
      <point x="545" y="454" type="curve" smooth="yes"/>
      <point x="432" y="454"/>
      <point x="360" y="530"/>
      <point x="360" y="646" type="curve" smooth="yes"/>
      <point x="360" y="648" type="line" smooth="yes"/>
      <point x="360" y="764"/>
      <point x="432" y="841"/>
      <point x="545" y="841" type="curve" smooth="yes"/>
      <point x="655" y="841"/>
      <point x="731" y="760"/>
      <point x="731" y="648" type="curve" smooth="yes"/>
      <point x="731" y="646" type="line" smooth="yes"/>
      <point x="731" y="534"/>
      <point x="655" y="454"/>
    </contour>
    <contour>
      <point x="356" y="1190" type="line"/>
      <point x="1200" y="1190" type="line"/>
      <point x="1200" y="1395" type="line"/>
      <point x="356" y="1395" type="line"/>
    </contour>
  </outline>
</glyph>
<glyph name="trademark" format="2">
  <advance width="1200"/>
  <unicode hex="2122"/>
  <outline>
    <contour>
      <point x="580" y="606" type="line"/>
      <point x="720" y="606" type="line"/>
      <point x="720" y="916" type="line"/>
      <point x="696" y="1179" type="line"/>
      <point x="706" y="1179" type="line"/>
      <point x="826" y="799" type="line"/>
      <point x="944" y="799" type="line"/>
      <point x="1064" y="1179" type="line"/>
      <point x="1074" y="1179" type="line"/>
      <point x="1050" y="916" type="line"/>
      <point x="1050" y="606" type="line"/>
      <point x="1190" y="606" type="line"/>
      <point x="1190" y="1458" type="line"/>
      <point x="1042" y="1458" type="line"/>
      <point x="928" y="1133" type="line"/>
      <point x="890" y="983" type="line"/>
      <point x="880" y="983" type="line"/>
      <point x="842" y="1133" type="line"/>
      <point x="728" y="1458" type="line"/>
      <point x="580" y="1458" type="line"/>
    </contour>
    <contour>
      <point x="185" y="606" type="line"/>
      <point x="347" y="606" type="line"/>
      <point x="347" y="1422" type="line"/>
      <point x="185" y="1422" type="line"/>
    </contour>
    <contour>
      <point x="10" y="1320" type="line"/>
      <point x="522" y="1320" type="line"/>
      <point x="522" y="1458" type="line"/>
      <point x="10" y="1458" type="line"/>
    </contour>
  </outline>
</glyph>
<glyph name="leftArrow" format="2">
  <advance width="1200"/>
  <unicode hex="2190"/>
  <outline>
    <contour>
      <point x="640" y="24" type="line"/>
      <point x="842" y="215" type="line"/>
      <point x="431" y="623" type="line"/>
      <point x="431" y="667" type="line"/>
      <point x="842" y="1075" type="line"/>
      <point x="640" y="1266" type="line"/>
      <point x="70" y="645" type="line"/>
    </contour>
    <contour>
      <point x="713" y="490" type="line"/>
      <point x="1172" y="490" type="line"/>
      <point x="1172" y="800" type="line"/>
      <point x="713" y="800" type="line"/>
      <point x="285" y="744" type="line"/>
      <point x="285" y="546" type="line"/>
    </contour>
  </outline>
</glyph>
<glyph name="downArrow" format="2">
  <advance width="1200"/>
  <unicode hex="2193"/>
  <outline>
    <contour>
      <point x="600" y="-55" type="line"/>
      <point x="1180" y="477" type="line"/>
      <point x="990" y="677" type="line"/>
      <point x="622" y="306" type="line"/>
      <point x="578" y="306" type="line"/>
      <point x="210" y="677" type="line"/>
      <point x="20" y="477" type="line"/>
    </contour>
    <contour>
      <point x="501" y="160" type="line"/>
      <point x="699" y="160" type="line"/>
      <point x="761" y="588" type="line"/>
      <point x="761" y="1307" type="line"/>
      <point x="439" y="1307" type="line"/>
      <point x="439" y="588" type="line"/>
    </contour>
  </outline>
</glyph>
<glyph name="rightwardsDoubleArrow" format="2">
  <advance width="1200"/>
  <unicode hex="21D2"/>
  <outline>
    <contour>
      <point x="548" y="-58" type="line"/>
      <point x="1190" y="645" type="line"/>
      <point x="548" y="1348" type="line"/>
      <point x="386" y="1191" type="line"/>
      <point x="827" y="749" type="line"/>
      <point x="827" y="541" type="line"/>
      <point x="386" y="99" type="line"/>
    </contour>
    <contour>
      <point x="20" y="326" type="line"/>
      <point x="436" y="326" type="line"/>
      <point x="920" y="442" type="line"/>
      <point x="920" y="550" type="line"/>
      <point x="20" y="550" type="line"/>
    </contour>
    <contour>
      <point x="20" y="740" type="line"/>
      <point x="920" y="740" type="line"/>
      <point x="920" y="848" type="line"/>
      <point x="436" y="964" type="line"/>
      <point x="20" y="964" type="line"/>
    </contour>
  </outline>
</glyph>
<glyph name="divisionslash" format="2">
  <advance width="1200"/>
  <unicode hex="2215"/>
  <outline>
    <contour>
      <point x="8" y="-35" type="line"/>
      <point x="358" y="-35" type="line"/>
      <point x="1192" y="1460" type="line"/>
      <point x="842" y="1460" type="line"/>
    </contour>
  </outline>
</glyph>
<glyph name="propellor" format="2">
  <advance width="1200"/>
  <unicode hex="2318"/>
  <outline>
    <contour>
      <point x="282" y="122" type="curve" smooth="yes"/>
      <point x="452" y="122"/>
      <point x="556" y="237"/>
      <point x="556" y="424" type="curve" smooth="yes"/>
      <point x="556" y="470" type="line"/>
      <point x="644" y="470" type="line"/>
      <point x="644" y="424" type="line" smooth="yes"/>
      <point x="644" y="237"/>
      <point x="752" y="122"/>
      <point x="928" y="122" type="curve" smooth="yes"/>
      <point x="1088" y="122"/>
      <point x="1196" y="230"/>
      <point x="1196" y="390" type="curve" smooth="yes"/>
      <point x="1196" y="561"/>
      <point x="1076" y="668"/>
      <point x="886" y="668" type="curve" smooth="yes"/>
      <point x="848" y="668" type="line"/>
      <point x="848" y="764" type="line"/>
      <point x="886" y="764" type="line" smooth="yes"/>
      <point x="1076" y="764"/>
      <point x="1196" y="871"/>
      <point x="1196" y="1042" type="curve" smooth="yes"/>
      <point x="1196" y="1202"/>
      <point x="1088" y="1310"/>
      <point x="929" y="1310" type="curve" smooth="yes"/>
      <point x="752" y="1310"/>
      <point x="644" y="1195"/>
      <point x="644" y="1008" type="curve" smooth="yes"/>
      <point x="644" y="962" type="line"/>
      <point x="556" y="962" type="line"/>
      <point x="556" y="1008" type="line" smooth="yes"/>
      <point x="556" y="1195"/>
      <point x="452" y="1310"/>
      <point x="282" y="1310" type="curve" smooth="yes"/>
      <point x="116" y="1310"/>
      <point x="4" y="1202"/>
      <point x="4" y="1042" type="curve" smooth="yes"/>
      <point x="4" y="871"/>
      <point x="124" y="764"/>
      <point x="314" y="764" type="curve" smooth="yes"/>
      <point x="352" y="764" type="line"/>
      <point x="352" y="668" type="line"/>
      <point x="314" y="668" type="line" smooth="yes"/>
      <point x="124" y="668"/>
      <point x="4" y="561"/>
      <point x="4" y="390" type="curve" smooth="yes"/>
      <point x="4" y="230"/>
      <point x="116" y="122"/>
    </contour>
    <contour>
      <point x="282" y="326" type="curve" smooth="yes"/>
      <point x="238" y="326"/>
      <point x="210" y="355"/>
      <point x="210" y="399" type="curve" smooth="yes"/>
      <point x="210" y="454"/>
      <point x="246" y="480"/>
      <point x="324" y="480" type="curve" smooth="yes"/>
      <point x="362" y="480" type="line"/>
      <point x="362" y="436" type="line" smooth="yes"/>
      <point x="362" y="360"/>
      <point x="337" y="326"/>
    </contour>
    <contour>
      <point x="324" y="952" type="line" smooth="yes"/>
      <point x="248" y="952"/>
      <point x="210" y="979"/>
      <point x="210" y="1033" type="curve" smooth="yes"/>
      <point x="210" y="1077"/>
      <point x="237" y="1106"/>
      <point x="278" y="1106" type="curve" smooth="yes"/>
      <point x="336" y="1106"/>
      <point x="362" y="1072"/>
      <point x="362" y="996" type="curve" smooth="yes"/>
      <point x="362" y="952" type="line"/>
    </contour>
    <contour>
      <point x="552" y="664" type="line"/>
      <point x="552" y="768" type="line"/>
      <point x="648" y="768" type="line"/>
      <point x="648" y="664" type="line"/>
    </contour>
    <contour>
      <point x="918" y="326" type="curve" smooth="yes"/>
      <point x="863" y="326"/>
      <point x="838" y="360"/>
      <point x="838" y="436" type="curve" smooth="yes"/>
      <point x="838" y="480" type="line"/>
      <point x="876" y="480" type="line" smooth="yes"/>
      <point x="954" y="480"/>
      <point x="990" y="454"/>
      <point x="990" y="399" type="curve" smooth="yes"/>
      <point x="990" y="355"/>
      <point x="962" y="326"/>
    </contour>
    <contour>
      <point x="838" y="952" type="line"/>
      <point x="838" y="996" type="line" smooth="yes"/>
      <point x="838" y="1072"/>
      <point x="865" y="1106"/>
      <point x="923" y="1106" type="curve" smooth="yes"/>
      <point x="963" y="1106"/>
      <point x="990" y="1077"/>
      <point x="990" y="1033" type="curve" smooth="yes"/>
      <point x="990" y="979"/>
      <point x="953" y="952"/>
      <point x="876" y="952" type="curve" smooth="yes"/>
    </contour>
  </outline>
</glyph>
<glyph name="optionKey" format="2">
  <advance width="1200"/>
  <unicode hex="2325"/>
  <outline>
    <contour>
      <point x="694" y="138" type="line"/>
      <point x="1006" y="138" type="line"/>
      <point x="505" y="1294" type="line"/>
      <point x="193" y="1294" type="line"/>
    </contour>
    <contour>
      <point x="18" y="994" type="line"/>
      <point x="508" y="994" type="line"/>
      <point x="468" y="1294" type="line"/>
      <point x="18" y="1294" type="line"/>
    </contour>
    <contour>
      <point x="752" y="138" type="line"/>
      <point x="1182" y="138" type="line"/>
      <point x="1182" y="438" type="line"/>
      <point x="692" y="438" type="line"/>
    </contour>
    <contour>
      <point x="722" y="994" type="line"/>
      <point x="1182" y="994" type="line"/>
      <point x="1182" y="1294" type="line"/>
      <point x="722" y="1294" type="line"/>
    </contour>
  </outline>
</glyph>
<glyph name="boxHeavyHorizontal" format="2">
  <advance width="1200"/>
  <unicode hex="2501"/>
  <outline>
    <contour>
      <point x="-170" y="338" type="line"/>
      <point x="1370" y="338" type="line"/>
      <point x="1370" y="950" type="line"/>
      <point x="-170" y="950" type="line"/>
    </contour>
  </outline>
</glyph>
<glyph name="boxLightTripleDashHorizontal" format="2">
  <advance width="1200"/>
  <unicode hex="2504"/>
  <outline>
    <contour>
      <point x="867" y="474" type="line"/>
      <point x="1133" y="474" type="line"/>
      <point x="1133" y="814" type="line"/>
      <point x="867" y="814" type="line"/>
    </contour>
    <contour>
      <point x="67" y="474" type="line"/>
      <point x="333" y="474" type="line"/>
      <point x="333" y="814" type="line"/>
      <point x="67" y="814" type="line"/>
    </contour>
    <contour>
      <point x="467" y="474" type="line"/>
      <point x="733" y="474" type="line"/>
      <point x="733" y="814" type="line"/>
      <point x="467" y="814" type="line"/>
    </contour>
  </outline>
</glyph>
<glyph name="boxLightTripleDashVertical" format="2">
  <advance width="1200"/>
  <unicode hex="2506"/>
  <outline>
    <contour>
      <point x="430" y="366" type="line"/>
      <point x="770" y="366" type="line"/>
      <point x="770" y="922" type="line"/>
      <point x="430" y="922" type="line"/>
    </contour>
    <contour>
      <point x="430" y="-467" type="line"/>
      <point x="770" y="-467" type="line"/>
      <point x="770" y="88" type="line"/>
      <point x="430" y="88" type="line"/>
    </contour>
    <contour>
      <point x="430" y="1200" type="line"/>
      <point x="770" y="1200" type="line"/>
      <point x="770" y="1755" type="line"/>
      <point x="430" y="1755" type="line"/>
    </contour>
  </outline>
</glyph>
<glyph name="boxHeavyQuadrupleDashHorizontal" format="2">
  <advance width="1200"/>
  <unicode hex="2509"/>
  <outline>
    <contour>
      <point x="938" y="338" type="line"/>
      <point x="1163" y="338" type="line"/>
      <point x="1163" y="950" type="line"/>
      <point x="938" y="950" type="line"/>
    </contour>
    <contour>
      <point x="38" y="338" type="line"/>
      <point x="263" y="338" type="line"/>
      <point x="263" y="950" type="line"/>
      <point x="38" y="950" type="line"/>
    </contour>
    <contour>
      <point x="338" y="338" type="line"/>
      <point x="563" y="338" type="line"/>
      <point x="563" y="950" type="line"/>
      <point x="338" y="950" type="line"/>
    </contour>
    <contour>
      <point x="638" y="338" type="line"/>
      <point x="863" y="338" type="line"/>
      <point x="863" y="950" type="line"/>
      <point x="638" y="950" type="line"/>
    </contour>
  </outline>
</glyph>
<glyph name="boxLightQuadrupleDashVertical" format="2">
  <advance width="1200"/>
  <unicode hex="250A"/>
  <outline>
    <contour>
      <point x="430" y="1347" type="line"/>
      <point x="770" y="1347" type="line"/>
      <point x="770" y="1816" type="line"/>
      <point x="430" y="1816" type="line"/>
    </contour>
    <contour>
      <point x="430" y="-528" type="line"/>
      <point x="770" y="-528" type="line"/>
      <point x="770" y="-59" type="line"/>
      <point x="430" y="-59" type="line"/>
    </contour>
    <contour>
      <point x="430" y="97" type="line"/>
      <point x="770" y="97" type="line"/>
      <point x="770" y="566" type="line"/>
      <point x="430" y="566" type="line"/>
    </contour>
    <contour>
      <point x="430" y="722" type="line"/>
      <point x="770" y="722" type="line"/>
      <point x="770" y="1191" type="line"/>
      <point x="430" y="1191" type="line"/>
    </contour>
  </outline>
</glyph>
<glyph name="boxDownLightAndRightHeavy" format="2">
  <advance width="1200"/>
  <unicode hex="250D"/>
  <outline>
    <contour>
      <point x="430" y="-656" type="line"/>
      <point x="770" y="-656" type="line"/>
      <point x="770" y="338" type="line"/>
      <point x="1370" y="338" type="line"/>
      <point x="1370" y="950" type="line"/>
      <point x="430" y="950" type="line"/>
    </contour>
  </outline>
</glyph>
<glyph name="boxUpLightAndRightHeavy" format="2">
  <advance width="1200"/>
  <unicode hex="2515"/>
  <outline>
    <contour>
      <point x="430" y="338" type="line"/>
      <point x="1370" y="338" type="line"/>
      <point x="1370" y="950" type="line"/>
      <point x="770" y="950" type="line"/>
      <point x="770" y="1944" type="line"/>
      <point x="430" y="1944" type="line"/>
    </contour>
  </outline>
</glyph>
<glyph name="boxUpLightAndLeftHeavy" format="2">
  <advance width="1200"/>
  <unicode hex="2519"/>
  <outline>
    <contour>
      <point x="-170" y="338" type="line"/>
      <point x="770" y="338" type="line"/>
      <point x="770" y="1944" type="line"/>
      <point x="430" y="1944" type="line"/>
      <point x="430" y="950" type="line"/>
      <point x="-170" y="950" type="line"/>
    </contour>
  </outline>
</glyph>
<glyph name="boxHeavyUpAndLeft" format="2">
  <advance width="1200"/>
  <unicode hex="251B"/>
  <outline>
    <contour>
      <point x="-170" y="338" type="line"/>
      <point x="906" y="338" type="line"/>
      <point x="906" y="1944" type="line"/>
      <point x="294" y="1944" type="line"/>
      <point x="294" y="950" type="line"/>
      <point x="-170" y="950" type="line"/>
    </contour>
  </outline>
</glyph>
<glyph name="boxDownHeavyAndRightUpLight" format="2">
  <advance width="1200"/>
  <unicode hex="251F"/>
  <outline>
    <contour>
      <point x="294" y="-656" type="line"/>
      <point x="906" y="-656" type="line"/>
      <point x="906" y="474" type="line"/>
      <point x="1370" y="474" type="line"/>
      <point x="1370" y="814" type="line"/>
      <point x="770" y="814" type="line"/>
      <point x="770" y="1944" type="line"/>
      <point x="430" y="1944" type="line"/>
      <point x="430" y="814" type="line"/>
      <point x="294" y="814" type="line"/>
    </contour>
  </outline>
</glyph>
<glyph name="boxDownLightAndLeftUpHeavy" format="2">
  <advance width="1200"/>
  <unicode hex="2529"/>
  <outline>
    <contour>
      <point x="430" y="-656" type="line"/>
      <point x="770" y="-656" type="line"/>
      <point x="770" y="338" type="line"/>
      <point x="906" y="338" type="line"/>
      <point x="906" y="1944" type="line"/>
      <point x="294" y="1944" type="line"/>
      <point x="294" y="950" type="line"/>
      <point x="-170" y="950" type="line"/>
      <point x="-170" y="338" type="line"/>
      <point x="430" y="338" type="line"/>
    </contour>
  </outline>
</glyph>
<glyph name="boxDownHeavyAndHorizontalLight" format="2">
  <advance width="1200"/>
  <unicode hex="2530"/>
  <outline>
    <contour>
      <point x="294" y="-656" type="line"/>
      <point x="906" y="-656" type="line"/>
      <point x="906" y="474" type="line"/>
      <point x="1370" y="474" type="line"/>
      <point x="1370" y="814" type="line"/>
      <point x="-170" y="814" type="line"/>
      <point x="-170" y="474" type="line"/>
      <point x="294" y="474" type="line"/>
    </contour>
  </outline>
</glyph>
<glyph name="boxLeftLightAndRightDownHeavy" format="2">
  <advance width="1200"/>
  <unicode hex="2532"/>
  <outline>
    <contour>
      <point x="294" y="-656" type="line"/>
      <point x="906" y="-656" type="line"/>
      <point x="906" y="338" type="line"/>
      <point x="1370" y="338" type="line"/>
      <point x="1370" y="950" type="line"/>
      <point x="294" y="950" type="line"/>
      <point x="294" y="814" type="line"/>
      <point x="-170" y="814" type="line"/>
      <point x="-170" y="474" type="line"/>
      <point x="294" y="474" type="line"/>
    </contour>
  </outline>
</glyph>
<glyph name="boxHeavyDownAndHorizontal" format="2">
  <advance width="1200"/>
  <unicode hex="2533"/>
  <outline>
    <contour>
      <point x="294" y="-656" type="line"/>
      <point x="906" y="-656" type="line"/>
      <point x="906" y="338" type="line"/>
      <point x="1370" y="338" type="line"/>
      <point x="1370" y="950" type="line"/>
      <point x="-170" y="950" type="line"/>
      <point x="-170" y="338" type="line"/>
      <point x="294" y="338" type="line"/>
    </contour>
  </outline>
</glyph>
<glyph name="boxLeftLightAndRightUpHeavy" format="2">
  <advance width="1200"/>
  <unicode hex="253A"/>
  <outline>
    <contour>
      <point x="294" y="338" type="line"/>
      <point x="1370" y="338" type="line"/>
      <point x="1370" y="950" type="line"/>
      <point x="906" y="950" type="line"/>
      <point x="906" y="1944" type="line"/>
      <point x="294" y="1944" type="line"/>
      <point x="294" y="814" type="line"/>
      <point x="-170" y="814" type="line"/>
      <point x="-170" y="474" type="line"/>
      <point x="294" y="474" type="line"/>
    </contour>
  </outline>
</glyph>
<glyph name="boxHeavyUpAndHorizontal" format="2">
  <advance width="1200"/>
  <unicode hex="253B"/>
  <outline>
    <contour>
      <point x="-170" y="338" type="line"/>
      <point x="1370" y="338" type="line"/>
      <point x="1370" y="950" type="line"/>
      <point x="906" y="950" type="line"/>
      <point x="906" y="1944" type="line"/>
      <point x="294" y="1944" type="line"/>
      <point x="294" y="950" type="line"/>
      <point x="-170" y="950" type="line"/>
    </contour>
  </outline>
</glyph>
<glyph name="boxHeavyDoubleDashHorizontal" format="2">
  <advance width="1200"/>
  <unicode hex="254D"/>
  <outline>
    <contour>
      <point x="750" y="338" type="line"/>
      <point x="1050" y="338" type="line"/>
      <point x="1050" y="950" type="line"/>
      <point x="750" y="950" type="line"/>
    </contour>
    <contour>
      <point x="150" y="338" type="line"/>
      <point x="450" y="338" type="line"/>
      <point x="450" y="950" type="line"/>
      <point x="150" y="950" type="line"/>
    </contour>
  </outline>
</glyph>
<glyph name="boxDoubleVertical" format="2">
  <advance width="1200"/>
  <unicode hex="2551"/>
  <outline>
    <contour>
      <point x="770" y="-656" type="line"/>
      <point x="1110" y="-656" type="line"/>
      <point x="1110" y="1944" type="line"/>
      <point x="770" y="1944" type="line"/>
    </contour>
    <contour>
      <point x="90" y="-656" type="line"/>
      <point x="430" y="-656" type="line"/>
      <point x="430" y="1944" type="line"/>
      <point x="90" y="1944" type="line"/>
    </contour>
  </outline>
</glyph>
<glyph name="boxDoubleUpAndRight" format="2">
  <advance width="1200"/>
  <unicode hex="255A"/>
  <outline>
    <contour>
      <point x="90" y="134" type="line"/>
      <point x="1370" y="134" type="line"/>
      <point x="1370" y="474" type="line"/>
      <point x="430" y="474" type="line"/>
      <point x="430" y="1944" type="line"/>
      <point x="90" y="1944" type="line"/>
    </contour>
    <contour>
      <point x="770" y="814" type="line"/>
      <point x="1370" y="814" type="line"/>
      <point x="1370" y="1154" type="line"/>
      <point x="1110" y="1154" type="line"/>
      <point x="1110" y="1944" type="line"/>
      <point x="770" y="1944" type="line"/>
    </contour>
  </outline>
</glyph>
<glyph name="boxDoubleUpAndLeft" format="2">
  <advance width="1200"/>
  <unicode hex="255D"/>
  <outline>
    <contour>
      <point x="-170" y="134" type="line"/>
      <point x="1110" y="134" type="line"/>
      <point x="1110" y="1944" type="line"/>
      <point x="770" y="1944" type="line"/>
      <point x="770" y="474" type="line"/>
      <point x="-170" y="474" type="line"/>
    </contour>
    <contour>
      <point x="-170" y="814" type="line"/>
      <point x="430" y="814" type="line"/>
      <point x="430" y="1944" type="line"/>
      <point x="90" y="1944" type="line"/>
      <point x="90" y="1154" type="line"/>
      <point x="-170" y="1154" type="line"/>
    </contour>
  </outline>
</glyph>
<glyph name="boxUpSingleAndHorizontalDouble" format="2">
  <advance width="1200"/>
  <unicode hex="2567"/>
  <outline>
    <contour>
      <point x="-170" y="814" type="line"/>
      <point x="1370" y="814" type="line"/>
      <point x="1370" y="1154" type="line"/>
      <point x="770" y="1154" type="line"/>
      <point x="770" y="1944" type="line"/>
      <point x="430" y="1944" type="line"/>
      <point x="430" y="1154" type="line"/>
      <point x="-170" y="1154" type="line"/>
    </contour>
    <contour>
      <point x="-170" y="134" type="line"/>
      <point x="1370" y="134" type="line"/>
      <point x="1370" y="474" type="line"/>
      <point x="-170" y="474" type="line"/>
    </contour>
  </outline>
</glyph>
<glyph name="boxUpDoubleAndHorizontalSingle" format="2">
  <advance width="1200"/>
  <unicode hex="2568"/>
  <outline>
    <contour>
      <point x="-170" y="474" type="line"/>
      <point x="1370" y="474" type="line"/>
      <point x="1370" y="814" type="line"/>
      <point x="1110" y="814" type="line"/>
      <point x="1110" y="1944" type="line"/>
      <point x="770" y="1944" type="line"/>
      <point x="770" y="814" type="line"/>
      <point x="430" y="814" type="line"/>
      <point x="430" y="1944" type="line"/>
      <point x="90" y="1944" type="line"/>
      <point x="90" y="814" type="line"/>
      <point x="-170" y="814" type="line"/>
    </contour>
  </outline>
</glyph>
<glyph name="boxVerticalDoubleAndHorizontalSingle" format="2">
  <advance width="1200"/>
  <unicode hex="256B"/>
  <outline>
    <contour>
      <point x="90" y="-656" type="line"/>
      <point x="430" y="-656" type="line"/>
      <point x="430" y="474" type="line"/>
      <point x="770" y="474" type="line"/>
      <point x="770" y="-656" type="line"/>
      <point x="1110" y="-656" type="line"/>
      <point x="1110" y="474" type="line"/>
      <point x="1370" y="474" type="line"/>
      <point x="1370" y="814" type="line"/>
      <point x="1110" y="814" type="line"/>
      <point x="1110" y="1944" type="line"/>
      <point x="770" y="1944" type="line"/>
      <point x="770" y="814" type="line"/>
      <point x="430" y="814" type="line"/>
      <point x="430" y="1944" type="line"/>
      <point x="90" y="1944" type="line"/>
      <point x="90" y="814" type="line"/>
      <point x="-170" y="814" type="line"/>
      <point x="-170" y="474" type="line"/>
      <point x="90" y="474" type="line"/>
    </contour>
  </outline>
</glyph>
<glyph name="boxLightArcDownAndRight" format="2">
  <advance width="1200"/>
  <unicode hex="256D"/>
  <outline>
    <contour>
      <point x="430" y="-656" type="line"/>
      <point x="770" y="-656" type="line"/>
      <point x="770" y="214" type="line" smooth="yes"/>
      <point x="770" y="381"/>
      <point x="863" y="474"/>
      <point x="1030" y="474" type="curve" smooth="yes"/>
      <point x="1370" y="474" type="line"/>
      <point x="1370" y="814" type="line"/>
      <point x="1030" y="814" type="line" smooth="yes"/>
      <point x="654" y="814"/>
      <point x="430" y="590"/>
      <point x="430" y="214" type="curve" smooth="yes"/>
    </contour>
  </outline>
</glyph>
<glyph name="boxLightArcDownAndLeft" format="2">
  <advance width="1200"/>
  <unicode hex="256E"/>
  <outline>
    <contour>
      <point x="430" y="-656" type="line"/>
      <point x="770" y="-656" type="line"/>
      <point x="770" y="214" type="line" smooth="yes"/>
      <point x="770" y="590"/>
      <point x="546" y="814"/>
      <point x="170" y="814" type="curve" smooth="yes"/>
      <point x="-170" y="814" type="line"/>
      <point x="-170" y="474" type="line"/>
      <point x="170" y="474" type="line" smooth="yes"/>
      <point x="337" y="474"/>
      <point x="430" y="381"/>
      <point x="430" y="214" type="curve" smooth="yes"/>
    </contour>
  </outline>
</glyph>
<glyph name="boxLightArcUpAndLeft" format="2">
  <advance width="1200"/>
  <unicode hex="256F"/>
  <outline>
    <contour>
      <point x="-170" y="474" type="line"/>
      <point x="170" y="474" type="line" smooth="yes"/>
      <point x="546" y="474"/>
      <point x="770" y="698"/>
      <point x="770" y="1074" type="curve" smooth="yes"/>
      <point x="770" y="1944" type="line"/>
      <point x="430" y="1944" type="line"/>
      <point x="430" y="1074" type="line" smooth="yes"/>
      <point x="430" y="907"/>
      <point x="337" y="814"/>
      <point x="170" y="814" type="curve" smooth="yes"/>
      <point x="-170" y="814" type="line"/>
    </contour>
  </outline>
</glyph>
<glyph name="boxLightDiagonalUpperRightToLowerLeft" format="2">
  <advance width="1200"/>
  <unicode hex="2571"/>
  <outline>
    <contour>
      <point x="0" y="-606" type="line"/>
      <point x="189" y="-606" type="line"/>
      <point x="1200" y="1501" type="line"/>
      <point x="1200" y="1894" type="line"/>
      <point x="1011" y="1894" type="line"/>
      <point x="0" y="-213" type="line"/>
    </contour>
  </outline>
</glyph>
<glyph name="boxLightDiagonalCross" format="2">
  <advance width="1200"/>
  <unicode hex="2573"/>
  <outline>
    <contour>
      <point x="0" y="-606" type="line"/>
      <point x="189" y="-606" type="line"/>
      <point x="600" y="251" type="line"/>
      <point x="1011" y="-606" type="line"/>
      <point x="1200" y="-606" type="line"/>
      <point x="1200" y="-213" type="line"/>
      <point x="789" y="644" type="line"/>
      <point x="1200" y="1501" type="line"/>
      <point x="1200" y="1894" type="line"/>
      <point x="1011" y="1894" type="line"/>
      <point x="600" y="1037" type="line"/>
      <point x="189" y="1894" type="line"/>
      <point x="0" y="1894" type="line"/>
      <point x="0" y="1501" type="line"/>
      <point x="411" y="644" type="line"/>
      <point x="0" y="-213" type="line"/>
    </contour>
  </outline>
</glyph>
<glyph name="boxLightLeft" format="2">
  <advance width="1200"/>
  <unicode hex="2574"/>
  <outline>
    <contour>
      <point x="-170" y="474" type="line"/>
      <point x="770" y="474" type="line"/>
      <point x="770" y="814" type="line"/>
      <point x="-170" y="814" type="line"/>
    </contour>
  </outline>
</glyph>
<glyph name="boxLightRight" format="2">
  <advance width="1200"/>
  <unicode hex="2576"/>
  <outline>
    <contour>
      <point x="430" y="474" type="line"/>
      <point x="1370" y="474" type="line"/>
      <point x="1370" y="814" type="line"/>
      <point x="430" y="814" type="line"/>
    </contour>
  </outline>
</glyph>
<glyph name="boxLightDown" format="2">
  <advance width="1200"/>
  <unicode hex="2577"/>
  <outline>
    <contour>
      <point x="430" y="-656" type="line"/>
      <point x="770" y="-656" type="line"/>
      <point x="770" y="814" type="line"/>
      <point x="430" y="814" type="line"/>
    </contour>
  </outline>
</glyph>
<glyph name="boxHeavyUpAndLightDown" format="2">
  <advance width="1200"/>
  <unicode hex="257F"/>
  <outline>
    <contour>
      <point x="430" y="-656" type="line"/>
      <point x="770" y="-656" type="line"/>
      <point x="770" y="474" type="line"/>
      <point x="906" y="474" type="line"/>
      <point x="906" y="1944" type="line"/>
      <point x="294" y="1944" type="line"/>
      <point x="294" y="474" type="line"/>
      <point x="430" y="474" type="line"/>
    </contour>
  </outline>
</glyph>
<glyph name="leftThreeQuartersBlock" format="2">
  <advance width="1200"/>
  <unicode hex="258A"/>
  <outline>
    <contour>
      <point x="0" y="-656" type="line"/>
      <point x="900" y="-656" type="line"/>
      <point x="900" y="1944" type="line"/>
      <point x="0" y="1944" type="line"/>
    </contour>
  </outline>
</glyph>
<glyph name="leftFiveEighthsBlock" format="2">
  <advance width="1200"/>
  <unicode hex="258B"/>
  <outline>
    <contour>
      <point x="0" y="-656" type="line"/>
      <point x="750" y="-656" type="line"/>
      <point x="750" y="1944" type="line"/>
      <point x="0" y="1944" type="line"/>
    </contour>
  </outline>
</glyph>
<glyph name="shadelight" format="2">
  <advance width="1200"/>
  <unicode hex="2591"/>
  <outline>
    <contour>
      <point x="1038" y="1717" type="line"/>
      <point x="1160" y="1717" type="line"/>
      <point x="1160" y="1839" type="line"/>
      <point x="1038" y="1839" type="line"/>
    </contour>
    <contour>
      <point x="40" y="-608" type="line"/>
      <point x="162" y="-608" type="line"/>
      <point x="162" y="-486" type="line"/>
      <point x="40" y="-486" type="line"/>
    </contour>
    <contour>
      <point x="40" y="-251" type="line"/>
      <point x="162" y="-251" type="line"/>
      <point x="162" y="-129" type="line"/>
      <point x="40" y="-129" type="line"/>
    </contour>
    <contour>
      <point x="241" y="-429" type="line"/>
      <point x="363" y="-429" type="line"/>
      <point x="363" y="-307" type="line"/>
      <point x="241" y="-307" type="line"/>
    </contour>
    <contour>
      <point x="439" y="-608" type="line"/>
      <point x="561" y="-608" type="line"/>
      <point x="561" y="-486" type="line"/>
      <point x="439" y="-486" type="line"/>
    </contour>
    <contour>
      <point x="40" y="108" type="line"/>
      <point x="162" y="108" type="line"/>
      <point x="162" y="230" type="line"/>
      <point x="40" y="230" type="line"/>
    </contour>
    <contour>
      <point x="241" y="-71" type="line"/>
      <point x="363" y="-71" type="line"/>
      <point x="363" y="51" type="line"/>
      <point x="241" y="51" type="line"/>
    </contour>
    <contour>
      <point x="439" y="-251" type="line"/>
      <point x="561" y="-251" type="line"/>
      <point x="561" y="-129" type="line"/>
      <point x="439" y="-129" type="line"/>
    </contour>
    <contour>
      <point x="640" y="-429" type="line"/>
      <point x="762" y="-429" type="line"/>
      <point x="762" y="-307" type="line"/>
      <point x="640" y="-307" type="line"/>
    </contour>
    <contour>
      <point x="837" y="-608" type="line"/>
      <point x="959" y="-608" type="line"/>
      <point x="959" y="-486" type="line"/>
      <point x="837" y="-486" type="line"/>
    </contour>
    <contour>
      <point x="40" y="465" type="line"/>
      <point x="162" y="465" type="line"/>
      <point x="162" y="587" type="line"/>
      <point x="40" y="587" type="line"/>
    </contour>
    <contour>
      <point x="241" y="286" type="line"/>
      <point x="363" y="286" type="line"/>
      <point x="363" y="408" type="line"/>
      <point x="241" y="408" type="line"/>
    </contour>
    <contour>
      <point x="439" y="108" type="line"/>
      <point x="561" y="108" type="line"/>
      <point x="561" y="230" type="line"/>
      <point x="439" y="230" type="line"/>
    </contour>
    <contour>
      <point x="640" y="-71" type="line"/>
      <point x="762" y="-71" type="line"/>
      <point x="762" y="51" type="line"/>
      <point x="640" y="51" type="line"/>
    </contour>
    <contour>
      <point x="837" y="-250" type="line"/>
      <point x="959" y="-250" type="line"/>
      <point x="959" y="-128" type="line"/>
      <point x="837" y="-128" type="line"/>
    </contour>
    <contour>
      <point x="1038" y="-429" type="line"/>
      <point x="1160" y="-429" type="line"/>
      <point x="1160" y="-307" type="line"/>
      <point x="1038" y="-307" type="line"/>
    </contour>
    <contour>
      <point x="40" y="823" type="line"/>
      <point x="162" y="823" type="line"/>
      <point x="162" y="945" type="line"/>
      <point x="40" y="945" type="line"/>
    </contour>
    <contour>
      <point x="241" y="644" type="line"/>
      <point x="363" y="644" type="line"/>
      <point x="363" y="766" type="line"/>
      <point x="241" y="766" type="line"/>
    </contour>
    <contour>
      <point x="439" y="465" type="line"/>
      <point x="561" y="465" type="line"/>
      <point x="561" y="587" type="line"/>
      <point x="439" y="587" type="line"/>
    </contour>
    <contour>
      <point x="640" y="286" type="line"/>
      <point x="762" y="286" type="line"/>
      <point x="762" y="408" type="line"/>
      <point x="640" y="408" type="line"/>
    </contour>
    <contour>
      <point x="837" y="108" type="line"/>
      <point x="959" y="108" type="line"/>
      <point x="959" y="230" type="line"/>
      <point x="837" y="230" type="line"/>
    </contour>
    <contour>
      <point x="1038" y="-72" type="line"/>
      <point x="1160" y="-72" type="line"/>
      <point x="1160" y="50" type="line"/>
      <point x="1038" y="50" type="line"/>
    </contour>
    <contour>
      <point x="40" y="1181" type="line"/>
      <point x="162" y="1181" type="line"/>
      <point x="162" y="1303" type="line"/>
      <point x="40" y="1303" type="line"/>
    </contour>
    <contour>
      <point x="241" y="1002" type="line"/>
      <point x="363" y="1002" type="line"/>
      <point x="363" y="1124" type="line"/>
      <point x="241" y="1124" type="line"/>
    </contour>
    <contour>
      <point x="439" y="823" type="line"/>
      <point x="561" y="823" type="line"/>
      <point x="561" y="945" type="line"/>
      <point x="439" y="945" type="line"/>
    </contour>
    <contour>
      <point x="640" y="644" type="line"/>
      <point x="762" y="644" type="line"/>
      <point x="762" y="766" type="line"/>
      <point x="640" y="766" type="line"/>
    </contour>
    <contour>
      <point x="837" y="465" type="line"/>
      <point x="959" y="465" type="line"/>
      <point x="959" y="587" type="line"/>
      <point x="837" y="587" type="line"/>
    </contour>
    <contour>
      <point x="1038" y="286" type="line"/>
      <point x="1160" y="286" type="line"/>
      <point x="1160" y="408" type="line"/>
      <point x="1038" y="408" type="line"/>
    </contour>
    <contour>
      <point x="40" y="1538" type="line"/>
      <point x="162" y="1538" type="line"/>
      <point x="162" y="1660" type="line"/>
      <point x="40" y="1660" type="line"/>
    </contour>
    <contour>
      <point x="241" y="1359" type="line"/>
      <point x="363" y="1359" type="line"/>
      <point x="363" y="1481" type="line"/>
      <point x="241" y="1481" type="line"/>
    </contour>
    <contour>
      <point x="439" y="1181" type="line"/>
      <point x="561" y="1181" type="line"/>
      <point x="561" y="1303" type="line"/>
      <point x="439" y="1303" type="line"/>
    </contour>
    <contour>
      <point x="640" y="1002" type="line"/>
      <point x="762" y="1002" type="line"/>
      <point x="762" y="1124" type="line"/>
      <point x="640" y="1124" type="line"/>
    </contour>
    <contour>
      <point x="837" y="823" type="line"/>
      <point x="959" y="823" type="line"/>
      <point x="959" y="945" type="line"/>
      <point x="837" y="945" type="line"/>
    </contour>
    <contour>
      <point x="1038" y="644" type="line"/>
      <point x="1160" y="644" type="line"/>
      <point x="1160" y="766" type="line"/>
      <point x="1038" y="766" type="line"/>
    </contour>
    <contour>
      <point x="241" y="1717" type="line"/>
      <point x="363" y="1717" type="line"/>
      <point x="363" y="1839" type="line"/>
      <point x="241" y="1839" type="line"/>
    </contour>
    <contour>
      <point x="439" y="1538" type="line"/>
      <point x="561" y="1538" type="line"/>
      <point x="561" y="1660" type="line"/>
      <point x="439" y="1660" type="line"/>
    </contour>
    <contour>
      <point x="640" y="1359" type="line"/>
      <point x="762" y="1359" type="line"/>
      <point x="762" y="1481" type="line"/>
      <point x="640" y="1481" type="line"/>
    </contour>
    <contour>
      <point x="837" y="1180" type="line"/>
      <point x="959" y="1180" type="line"/>
      <point x="959" y="1302" type="line"/>
      <point x="837" y="1302" type="line"/>
    </contour>
    <contour>
      <point x="1038" y="1002" type="line"/>
      <point x="1160" y="1002" type="line"/>
      <point x="1160" y="1124" type="line"/>
      <point x="1038" y="1124" type="line"/>
    </contour>
    <contour>
      <point x="640" y="1717" type="line"/>
      <point x="762" y="1717" type="line"/>
      <point x="762" y="1839" type="line"/>
      <point x="640" y="1839" type="line"/>
    </contour>
    <contour>
      <point x="837" y="1538" type="line"/>
      <point x="959" y="1538" type="line"/>
      <point x="959" y="1660" type="line"/>
      <point x="837" y="1660" type="line"/>
    </contour>
    <contour>
      <point x="1038" y="1359" type="line"/>
      <point x="1160" y="1359" type="line"/>
      <point x="1160" y="1481" type="line"/>
      <point x="1038" y="1481" type="line"/>
    </contour>
  </outline>
</glyph>
<glyph name="shadedark" format="2">
  <advance width="1200"/>
  <unicode hex="2593"/>
  <outline>
    <contour>
      <point x="-6" y="-608" type="line"/>
      <point x="1206" y="-608" type="line"/>
      <point x="1206" y="1896" type="line"/>
      <point x="-6" y="1896" type="line"/>
    </contour>
    <contour>
      <point x="50" y="-608" type="line"/>
      <point x="50" y="-510" type="line"/>
      <point x="148" y="-510" type="line"/>
      <point x="148" y="-608" type="line"/>
    </contour>
    <contour>
      <point x="50" y="-250" type="line"/>
      <point x="50" y="-152" type="line"/>
      <point x="148" y="-152" type="line"/>
      <point x="148" y="-250" type="line"/>
    </contour>
    <contour>
      <point x="251" y="-429" type="line"/>
      <point x="251" y="-331" type="line"/>
      <point x="349" y="-331" type="line"/>
      <point x="349" y="-429" type="line"/>
    </contour>
    <contour>
      <point x="451" y="-608" type="line"/>
      <point x="451" y="-510" type="line"/>
      <point x="549" y="-510" type="line"/>
      <point x="549" y="-608" type="line"/>
    </contour>
    <contour>
      <point x="50" y="107" type="line"/>
      <point x="50" y="205" type="line"/>
      <point x="148" y="205" type="line"/>
      <point x="148" y="107" type="line"/>
    </contour>
    <contour>
      <point x="251" y="-71" type="line"/>
      <point x="251" y="27" type="line"/>
      <point x="349" y="27" type="line"/>
      <point x="349" y="-71" type="line"/>
    </contour>
    <contour>
      <point x="451" y="-250" type="line"/>
      <point x="451" y="-152" type="line"/>
      <point x="549" y="-152" type="line"/>
      <point x="549" y="-250" type="line"/>
    </contour>
    <contour>
      <point x="652" y="-429" type="line"/>
      <point x="652" y="-331" type="line"/>
      <point x="750" y="-331" type="line"/>
      <point x="750" y="-429" type="line"/>
    </contour>
    <contour>
      <point x="851" y="-608" type="line"/>
      <point x="851" y="-510" type="line"/>
      <point x="949" y="-510" type="line"/>
      <point x="949" y="-608" type="line"/>
    </contour>
    <contour>
      <point x="50" y="465" type="line"/>
      <point x="50" y="563" type="line"/>
      <point x="148" y="563" type="line"/>
      <point x="148" y="465" type="line"/>
    </contour>
    <contour>
      <point x="251" y="286" type="line"/>
      <point x="251" y="384" type="line"/>
      <point x="349" y="384" type="line"/>
      <point x="349" y="286" type="line"/>
    </contour>
    <contour>
      <point x="451" y="107" type="line"/>
      <point x="451" y="205" type="line"/>
      <point x="549" y="205" type="line"/>
      <point x="549" y="107" type="line"/>
    </contour>
    <contour>
      <point x="652" y="-71" type="line"/>
      <point x="652" y="27" type="line"/>
      <point x="750" y="27" type="line"/>
      <point x="750" y="-71" type="line"/>
    </contour>
    <contour>
      <point x="851" y="-250" type="line"/>
      <point x="851" y="-152" type="line"/>
      <point x="949" y="-152" type="line"/>
      <point x="949" y="-250" type="line"/>
    </contour>
    <contour>
      <point x="1052" y="-429" type="line"/>
      <point x="1052" y="-331" type="line"/>
      <point x="1150" y="-331" type="line"/>
      <point x="1150" y="-429" type="line"/>
    </contour>
    <contour>
      <point x="50" y="823" type="line"/>
      <point x="50" y="921" type="line"/>
      <point x="148" y="921" type="line"/>
      <point x="148" y="823" type="line"/>
    </contour>
    <contour>
      <point x="251" y="644" type="line"/>
      <point x="251" y="742" type="line"/>
      <point x="349" y="742" type="line"/>
      <point x="349" y="644" type="line"/>
    </contour>
    <contour>
      <point x="451" y="465" type="line"/>
      <point x="451" y="563" type="line"/>
      <point x="549" y="563" type="line"/>
      <point x="549" y="465" type="line"/>
    </contour>
    <contour>
      <point x="652" y="286" type="line"/>
      <point x="652" y="384" type="line"/>
      <point x="750" y="384" type="line"/>
      <point x="750" y="286" type="line"/>
    </contour>
    <contour>
      <point x="851" y="107" type="line"/>
      <point x="851" y="205" type="line"/>
      <point x="949" y="205" type="line"/>
      <point x="949" y="107" type="line"/>
    </contour>
    <contour>
      <point x="1052" y="-71" type="line"/>
      <point x="1052" y="27" type="line"/>
      <point x="1150" y="27" type="line"/>
      <point x="1150" y="-71" type="line"/>
    </contour>
    <contour>
      <point x="50" y="1181" type="line"/>
      <point x="50" y="1279" type="line"/>
      <point x="148" y="1279" type="line"/>
      <point x="148" y="1181" type="line"/>
    </contour>
    <contour>
      <point x="251" y="1002" type="line"/>
      <point x="251" y="1100" type="line"/>
      <point x="349" y="1100" type="line"/>
      <point x="349" y="1002" type="line"/>
    </contour>
    <contour>
      <point x="451" y="823" type="line"/>
      <point x="451" y="921" type="line"/>
      <point x="549" y="921" type="line"/>
      <point x="549" y="823" type="line"/>
    </contour>
    <contour>
      <point x="652" y="644" type="line"/>
      <point x="652" y="742" type="line"/>
      <point x="750" y="742" type="line"/>
      <point x="750" y="644" type="line"/>
    </contour>
    <contour>
      <point x="851" y="465" type="line"/>
      <point x="851" y="563" type="line"/>
      <point x="949" y="563" type="line"/>
      <point x="949" y="465" type="line"/>
    </contour>
    <contour>
      <point x="1052" y="286" type="line"/>
      <point x="1052" y="384" type="line"/>
      <point x="1150" y="384" type="line"/>
      <point x="1150" y="286" type="line"/>
    </contour>
    <contour>
      <point x="50" y="1538" type="line"/>
      <point x="50" y="1636" type="line"/>
      <point x="148" y="1636" type="line"/>
      <point x="148" y="1538" type="line"/>
    </contour>
    <contour>
      <point x="251" y="1359" type="line"/>
      <point x="251" y="1457" type="line"/>
      <point x="349" y="1457" type="line"/>
      <point x="349" y="1359" type="line"/>
    </contour>
    <contour>
      <point x="450" y="1181" type="line"/>
      <point x="450" y="1279" type="line"/>
      <point x="548" y="1279" type="line"/>
      <point x="548" y="1181" type="line"/>
    </contour>
    <contour>
      <point x="651" y="1002" type="line"/>
      <point x="651" y="1100" type="line"/>
      <point x="749" y="1100" type="line"/>
      <point x="749" y="1002" type="line"/>
    </contour>
    <contour>
      <point x="851" y="823" type="line"/>
      <point x="851" y="921" type="line"/>
      <point x="949" y="921" type="line"/>
      <point x="949" y="823" type="line"/>
    </contour>
    <contour>
      <point x="1052" y="644" type="line"/>
      <point x="1052" y="742" type="line"/>
      <point x="1150" y="742" type="line"/>
      <point x="1150" y="644" type="line"/>
    </contour>
    <contour>
      <point x="251" y="1717" type="line"/>
      <point x="251" y="1815" type="line"/>
      <point x="349" y="1815" type="line"/>
      <point x="349" y="1717" type="line"/>
    </contour>
    <contour>
      <point x="450" y="1538" type="line"/>
      <point x="450" y="1636" type="line"/>
      <point x="548" y="1636" type="line"/>
      <point x="548" y="1538" type="line"/>
    </contour>
    <contour>
      <point x="651" y="1359" type="line"/>
      <point x="651" y="1457" type="line"/>
      <point x="749" y="1457" type="line"/>
      <point x="749" y="1359" type="line"/>
    </contour>
    <contour>
      <point x="851" y="1181" type="line"/>
      <point x="851" y="1279" type="line"/>
      <point x="949" y="1279" type="line"/>
      <point x="949" y="1181" type="line"/>
    </contour>
    <contour>
      <point x="1052" y="1002" type="line"/>
      <point x="1052" y="1100" type="line"/>
      <point x="1150" y="1100" type="line"/>
      <point x="1150" y="1002" type="line"/>
    </contour>
    <contour>
      <point x="651" y="1717" type="line"/>
      <point x="651" y="1815" type="line"/>
      <point x="749" y="1815" type="line"/>
      <point x="749" y="1717" type="line"/>
    </contour>
    <contour>
      <point x="851" y="1538" type="line"/>
      <point x="851" y="1636" type="line"/>
      <point x="949" y="1636" type="line"/>
      <point x="949" y="1538" type="line"/>
    </contour>
    <contour>
      <point x="1052" y="1359" type="line"/>
      <point x="1052" y="1457" type="line"/>
      <point x="1150" y="1457" type="line"/>
      <point x="1150" y="1359" type="line"/>
    </contour>
    <contour>
      <point x="1052" y="1717" type="line"/>
      <point x="1052" y="1815" type="line"/>
      <point x="1150" y="1815" type="line"/>
      <point x="1150" y="1717" type="line"/>
    </contour>
  </outline>
</glyph>
<glyph name="upperLeftBlock" format="2">
  <advance width="1200"/>
  <unicode hex="2598"/>
  <outline>
    <contour>
      <point x="0" y="644" type="line"/>
      <point x="600" y="644" type="line"/>
      <point x="600" y="1944" type="line"/>
      <point x="0" y="1944" type="line"/>
    </contour>
  </outline>
</glyph>
<glyph name="blackSquare" format="2">
  <advance width="1200"/>
  <unicode hex="25A0"/>
  <outline>
    <contour>
      <point x="102" y="218" type="line"/>
      <point x="1098" y="218" type="line"/>
      <point x="1098" y="1214" type="line"/>
      <point x="102" y="1214" type="line"/>
    </contour>
  </outline>
</glyph>
<glyph name="filledRect" format="2">
  <advance width="1200"/>
  <unicode hex="25AC"/>
  <outline>
    <contour>
      <point x="50" y="356" type="line"/>
      <point x="1150" y="356" type="line"/>
      <point x="1150" y="696" type="line"/>
      <point x="50" y="696" type="line"/>
    </contour>
  </outline>
</glyph>
<glyph name="downBlackTriangle" format="2">
  <advance width="1200"/>
  <unicode hex="25BC"/>
  <outline>
    <contour>
      <point x="600" y="166" type="line"/>
      <point x="1110" y="1266" type="line"/>
      <point x="90" y="1266" type="line"/>
    </contour>
  </outline>
</glyph>
<glyph name="blackDiamond" format="2">
  <advance width="1200"/>
  <unicode hex="25C6"/>
  <outline>
    <contour>
      <point x="600" y="180" type="line"/>
      <point x="1136" y="716" type="line"/>
      <point x="600" y="1252" type="line"/>
      <point x="64" y="716" type="line"/>
    </contour>
  </outline>
</glyph>
<glyph name="fisheye" format="2">
  <advance width="1200"/>
  <unicode hex="25C9"/>
  <outline>
    <contour>
      <point x="600" y="136" type="curve" smooth="yes"/>
      <point x="933" y="136"/>
      <point x="1180" y="383"/>
      <point x="1180" y="716" type="curve" smooth="yes"/>
      <point x="1180" y="1049"/>
      <point x="933" y="1296"/>
      <point x="600" y="1296" type="curve" smooth="yes"/>
      <point x="268" y="1296"/>
      <point x="20" y="1048"/>
      <point x="20" y="716" type="curve" smooth="yes"/>
      <point x="20" y="384"/>
      <point x="268" y="136"/>
    </contour>
    <contour>
      <point x="600" y="318" type="curve" smooth="yes"/>
      <point x="375" y="318"/>
      <point x="206" y="488"/>
      <point x="206" y="716" type="curve" smooth="yes"/>
      <point x="206" y="944"/>
      <point x="375" y="1114"/>
      <point x="600" y="1114" type="curve" smooth="yes"/>
      <point x="825" y="1114"/>
      <point x="994" y="944"/>
      <point x="994" y="716" type="curve" smooth="yes"/>
      <point x="994" y="488"/>
      <point x="825" y="318"/>
    </contour>
    <contour>
      <point x="600" y="448" type="curve" smooth="yes"/>
      <point x="750" y="448"/>
      <point x="860" y="561"/>
      <point x="860" y="716" type="curve" smooth="yes"/>
      <point x="860" y="871"/>
      <point x="750" y="984"/>
      <point x="600" y="984" type="curve" smooth="yes"/>
      <point x="450" y="984"/>
      <point x="340" y="871"/>
      <point x="340" y="716" type="curve" smooth="yes"/>
      <point x="340" y="561"/>
      <point x="450" y="448"/>
    </contour>
  </outline>
</glyph>
<glyph name="lozenge" format="2">
  <advance width="1200"/>
  <unicode hex="25CA"/>
  <outline>
    <contour>
      <point x="480" y="-35" type="line"/>
      <point x="720" y="-35" type="line"/>
      <point x="1140" y="716" type="line"/>
      <point x="720" y="1467" type="line"/>
      <point x="480" y="1467" type="line"/>
      <point x="60" y="716" type="line"/>
    </contour>
    <contour>
      <point x="600" y="304" type="line"/>
      <point x="328" y="810" type="line"/>
      <point x="328" y="622" type="line"/>
      <point x="600" y="1128" type="line"/>
      <point x="872" y="622" type="line"/>
      <point x="872" y="810" type="line"/>
    </contour>
  </outline>
</glyph>
<glyph name="whiteCircle" format="2">
  <advance width="1200"/>
  <unicode hex="25CB"/>
  <outline>
    <contour>
      <point x="600" y="136" type="curve" smooth="yes"/>
      <point x="933" y="136"/>
      <point x="1180" y="383"/>
      <point x="1180" y="716" type="curve" smooth="yes"/>
      <point x="1180" y="1050"/>
      <point x="934" y="1296"/>
      <point x="600" y="1296" type="curve" smooth="yes"/>
      <point x="267" y="1296"/>
      <point x="20" y="1049"/>
      <point x="20" y="716" type="curve" smooth="yes"/>
      <point x="20" y="383"/>
      <point x="267" y="136"/>
    </contour>
    <contour>
      <point x="600" y="332" type="curve" smooth="yes"/>
      <point x="378" y="332"/>
      <point x="220" y="491"/>
      <point x="220" y="716" type="curve" smooth="yes"/>
      <point x="220" y="941"/>
      <point x="378" y="1100"/>
      <point x="600" y="1100" type="curve" smooth="yes"/>
      <point x="822" y="1100"/>
      <point x="980" y="941"/>
      <point x="980" y="716" type="curve" smooth="yes"/>
      <point x="980" y="491"/>
      <point x="822" y="332"/>
    </contour>
  </outline>
</glyph>
<glyph name="blackCircle" format="2">
  <advance width="1200"/>
  <unicode hex="25CF"/>
  <outline>
    <contour>
      <point x="600" y="190" type="curve" smooth="yes"/>
      <point x="895" y="190"/>
      <point x="1122" y="419"/>
      <point x="1122" y="716" type="curve" smooth="yes"/>
      <point x="1122" y="1013"/>
      <point x="895" y="1242"/>
      <point x="600" y="1242" type="curve" smooth="yes"/>
      <point x="305" y="1242"/>
      <point x="78" y="1013"/>
      <point x="78" y="716" type="curve" smooth="yes"/>
      <point x="78" y="419"/>
      <point x="305" y="190"/>
    </contour>
  </outline>
</glyph>
<glyph name="Ohorn.alt" format="2">
  <advance width="1200"/>
  <anchor x="608" y="1432" name="top"/>
  <outline>
    <contour>
      <point x="595" y="-35" type="curve" smooth="yes"/>
      <point x="936" y="-35"/>
      <point x="1140" y="237"/>
      <point x="1140" y="693" type="curve" smooth="yes"/>
      <point x="1140" y="739" type="line" smooth="yes"/>
      <point x="1140" y="1098"/>
      <point x="1018" y="1312"/>
      <point x="771" y="1396" type="curve"/>
      <point x="748" y="1305" type="line"/>
      <point x="828" y="1305" type="line" smooth="yes"/>
      <point x="1070" y="1305"/>
      <point x="1214" y="1422"/>
      <point x="1214" y="1593" type="curve" smooth="yes"/>
      <point x="1214" y="1642"/>
      <point x="1206" y="1702"/>
      <point x="1191" y="1759" type="curve"/>
      <point x="854" y="1691" type="line"/>
      <point x="868" y="1636"/>
      <point x="876" y="1590"/>
      <point x="876" y="1540" type="curve" smooth="yes"/>
      <point x="876" y="1474"/>
      <point x="852" y="1446"/>
      <point x="798" y="1446" type="curve" smooth="yes"/>
      <point x="755" y="1446"/>
      <point x="692" y="1467"/>
      <point x="608" y="1467" type="curve" smooth="yes"/>
      <point x="254" y="1467"/>
      <point x="50" y="1195"/>
      <point x="50" y="739" type="curve" smooth="yes"/>
      <point x="50" y="693" type="line" smooth="yes"/>
      <point x="50" y="237"/>
      <point x="254" y="-35"/>
    </contour>
    <contour>
      <point x="595" y="299" type="curve" smooth="yes"/>
      <point x="466" y="299"/>
      <point x="400" y="431"/>
      <point x="400" y="688" type="curve" smooth="yes"/>
      <point x="400" y="744" type="line" smooth="yes"/>
      <point x="400" y="1009"/>
      <point x="470" y="1145"/>
      <point x="608" y="1145" type="curve" smooth="yes"/>
      <point x="735" y="1145"/>
      <point x="790" y="1015"/>
      <point x="790" y="764" type="curve" smooth="yes"/>
      <point x="790" y="688" type="line" smooth="yes"/>
      <point x="790" y="431"/>
      <point x="724" y="299"/>
    </contour>
  </outline>
</glyph>
<glyph name="brevecomb_gravecomb" format="2">
  <anchor x="0" y="1054" name="_top"/>
  <outline>
    <contour>
      <point x="0" y="1164" type="curve" smooth="yes"/>
      <point x="247" y="1164"/>
      <point x="414" y="1320"/>
      <point x="414" y="1549" type="curve" smooth="yes"/>
      <point x="414" y="1556" type="line"/>
      <point x="190" y="1556" type="line"/>
      <point x="190" y="1546" type="line" smooth="yes"/>
      <point x="190" y="1434"/>
      <point x="117" y="1364"/>
      <point x="0" y="1364" type="curve" smooth="yes"/>
      <point x="-117" y="1364"/>
      <point x="-190" y="1434"/>
      <point x="-190" y="1546" type="curve" smooth="yes"/>
      <point x="-190" y="1556" type="line"/>
      <point x="-414" y="1556" type="line"/>
      <point x="-414" y="1549" type="line" smooth="yes"/>
      <point x="-414" y="1320"/>
      <point x="-247" y="1164"/>
    </contour>
    <contour>
      <point x="-50" y="1530" type="line"/>
      <point x="130" y="1530" type="line"/>
      <point x="130" y="1544" type="line"/>
      <point x="-12" y="1934" type="line"/>
      <point x="-322" y="1934" type="line"/>
      <point x="-322" y="1920" type="line"/>
    </contour>
  </outline>
</glyph>
<glyph name="circumflexcomb_tildecomb" format="2">
  <anchor x="0" y="1054" name="_top"/>
  <outline>
    <contour>
      <point x="-488" y="1164" type="line"/>
      <point x="-152" y="1164" type="line"/>
      <point x="20" y="1379" type="line"/>
      <point x="-20" y="1379" type="line"/>
      <point x="152" y="1164" type="line"/>
      <point x="488" y="1164" type="line"/>
      <point x="488" y="1178" type="line"/>
      <point x="130" y="1538" type="line"/>
      <point x="-130" y="1538" type="line"/>
      <point x="-488" y="1178" type="line"/>
    </contour>
    <contour>
      <point x="222" y="1622" type="curve" smooth="yes"/>
      <point x="357" y="1622"/>
      <point x="427" y="1708"/>
      <point x="427" y="1880" type="curve" smooth="yes"/>
      <point x="427" y="1968" type="line"/>
      <point x="197" y="1968" type="line"/>
      <point x="197" y="1910" type="line" smooth="yes"/>
      <point x="197" y="1865"/>
      <point x="174" y="1841"/>
      <point x="137" y="1841" type="curve" smooth="yes"/>
      <point x="100" y="1841"/>
      <point x="66" y="1856"/>
      <point x="-13" y="1905" type="curve" smooth="yes"/>
      <point x="-80" y="1947"/>
      <point x="-138" y="1972"/>
      <point x="-207" y="1972" type="curve" smooth="yes"/>
      <point x="-344" y="1972"/>
      <point x="-427" y="1881"/>
      <point x="-427" y="1714" type="curve" smooth="yes"/>
      <point x="-427" y="1626" type="line"/>
      <point x="-197" y="1626" type="line"/>
      <point x="-197" y="1683" type="line" smooth="yes"/>
      <point x="-197" y="1727"/>
      <point x="-172" y="1752"/>
      <point x="-132" y="1752" type="curve" smooth="yes"/>
      <point x="-89" y="1752"/>
      <point x="-54" y="1736"/>
      <point x="25" y="1687" type="curve" smooth="yes"/>
      <point x="93" y="1645"/>
      <point x="152" y="1622"/>
    </contour>
  </outline>
</glyph>
<glyph name="ijacute" format="2">
  <advance width="1200"/>
  <anchor x="304" y="1054" name="_top"/>
  <outline>
    <contour>
      <point x="689" y="-451" type="curve" smooth="yes"/>
      <point x="989" y="-451"/>
      <point x="1169" y="-272"/>
      <point x="1169" y="26" type="curve" smooth="yes"/>
      <point x="1169" y="1054" type="line"/>
      <point x="829" y="1054" type="line"/>
      <point x="829" y="14" type="line" smooth="yes"/>
      <point x="829" y="-92"/>
      <point x="773" y="-153"/>
      <point x="672" y="-153" type="curve" smooth="yes"/>
      <point x="603" y="-153"/>
      <point x="543" y="-128"/>
      <point x="472" y="-75" type="curve"/>
      <point x="310" y="-327" type="line"/>
      <point x="420" y="-408"/>
      <point x="549" y="-451"/>
    </contour>
    <contour>
      <point x="17" y="0" type="line"/>
      <point x="719" y="0" type="line"/>
      <point x="719" y="250" type="line"/>
      <point x="17" y="250" type="line"/>
    </contour>
    <contour>
      <point x="205" y="83" type="line"/>
      <point x="541" y="83" type="line"/>
      <point x="541" y="1054" type="line"/>
      <point x="205" y="1054" type="line"/>
    </contour>
    <contour>
      <point x="25" y="804" type="line"/>
      <point x="515" y="804" type="line"/>
      <point x="515" y="1054" type="line"/>
      <point x="25" y="1054" type="line"/>
    </contour>
    <contour>
      <point x="629" y="804" type="line"/>
      <point x="1081" y="804" type="line"/>
      <point x="1081" y="1054" type="line"/>
      <point x="629" y="1054" type="line"/>
    </contour>
    <component base="acutecomb" xOffset="304"/>
    <component base="acutecomb" xOffset="928"/>
  </outline>
</glyph>
<glyph name="ohorn.alt" format="2">
  <advance width="1200"/>
  <outline>
    <contour>
      <point x="578" y="-35" type="curve" smooth="yes"/>
      <point x="898" y="-35"/>
      <point x="1102" y="180"/>
      <point x="1102" y="517" type="curve" smooth="yes"/>
      <point x="1102" y="537" type="line" smooth="yes"/>
      <point x="1102" y="776"/>
      <point x="980" y="960"/>
      <point x="762" y="1032" type="curve"/>
      <point x="718" y="940" type="line"/>
      <point x="793" y="940" type="line" smooth="yes"/>
      <point x="1046" y="940"/>
      <point x="1193" y="1047"/>
      <point x="1193" y="1232" type="curve" smooth="yes"/>
      <point x="1193" y="1283"/>
      <point x="1185" y="1330"/>
      <point x="1170" y="1380" type="curve"/>
      <point x="846" y="1300" type="line"/>
      <point x="862" y="1260"/>
      <point x="870" y="1220"/>
      <point x="870" y="1182" type="curve" smooth="yes"/>
      <point x="870" y="1111"/>
      <point x="833" y="1075"/>
      <point x="760" y="1075" type="curve" smooth="yes"/>
      <point x="706" y="1075"/>
      <point x="657" y="1089"/>
      <point x="578" y="1089" type="curve" smooth="yes"/>
      <point x="252" y="1089"/>
      <point x="54" y="867"/>
      <point x="54" y="537" type="curve" smooth="yes"/>
      <point x="54" y="517" type="line" smooth="yes"/>
      <point x="54" y="187"/>
      <point x="252" y="-35"/>
    </contour>
    <contour>
      <point x="578" y="263" type="curve" smooth="yes"/>
      <point x="458" y="263"/>
      <point x="392" y="359"/>
      <point x="392" y="521" type="curve" smooth="yes"/>
      <point x="392" y="533" type="line" smooth="yes"/>
      <point x="392" y="699"/>
      <point x="458" y="797"/>
      <point x="578" y="797" type="curve" smooth="yes"/>
      <point x="698" y="797"/>
      <point x="764" y="699"/>
      <point x="764" y="533" type="curve" smooth="yes"/>
      <point x="764" y="521" type="line" smooth="yes"/>
      <point x="764" y="359"/>
      <point x="698" y="263"/>
    </contour>
  </outline>
</glyph>
